<svg width="100px" height="100px" version="1.1" viewBox="0 0 100 100" xmlns="http://www.w3.org/2000/svg">
 <g transform="matrix(.89368 0 0 .8799 -8.2435 -8.0973)" fill="none" stroke="#000" stroke-linecap="round" stroke-linejoin="round">
  <path d="m85.911 66.368c0.26624 11.41-9.1533 20.866-20.745 20.929-5.9198 0.032337-11.585-2.427-15.592-6.8007-3.5459-3.8705-5.5173-8.9353-5.5629-14.207-0.01184-1.3686 0.10635-2.7353 0.35231-4.0812m0.06206 6.1992c-0.07607-0.8145-0.10875-1.633-0.09767-2.4517 0.04254-3.1433 0.72948-6.237 2.0199-9.0661m-1.4368-0.29217c3.0018-8.0537 10.599-13.134 19.068-12.98 2.0179 0.03681 4.0302 0.37145 5.9734 0.99315m-1.8686 0.3551c9.8334 1.6225 17.243 10.357 17.164 20.574-0.05312 6.8753-3.5372 13.275-9.4084 17.024-3.5246 2.2507-7.5686 3.4441-11.644 3.4002-11.253-0.12128-19.98-9.5177-19.203-21.333 0.11127-1.6917 0.41862-3.3822 0.91741-5.0381 2.9064-9.6487 10.943-16.118 20.016-15.668 4.1432 0.20535 8.1223 1.8689 11.363 4.7755m9.3331 15.586c-0.073354 11.489-9.6488 20.976-21.724 21.153-6.1737 0.090561-12.147-2.2947-16.624-6.5573-3.9566-3.7667-6.026-8.7965-5.9651-14.04 0.13538-11.649 10.435-21.266 22.473-21.446 0.0859-0.0013 0.17177-0.0021 0.25762-0.0024m-8.4724 2.5687c2.7183-1.2559 5.6448-1.8932 8.5849-1.8697 11.353 0.09067 20.34 9.8189 19.862 21.954-0.03013 0.76471-0.09825 1.5297-0.20421 2.2921" stroke-opacity=".30307" stroke-width="2.5671"/>
  <g stroke-opacity=".30179" stroke-width="3.3831">
   <path d="m91.324 49.568c4.198 3.1872 7.5401 5.9061 9.8341 8.3619 1.1556 1.2371 2.0636 2.4251 2.7055 3.6043 0.6421 1.1796 1.0197 2.3533 1.1126 3.5648 0.0929 1.2118-0.0988 2.4631-0.59711 3.8-0.49836 1.3371-1.3036 2.7604-2.4382 4.3169-2.2689 3.1126-5.8587 6.7616-10.918 11.29 0.90114-1.2519 1.6776-2.5329 2.3378-3.8351 2.3513-4.6377 3.2299-9.5267 2.9834-14.312-0.08291-1.6097-0.29308-3.207-0.61697-4.7782m0.91072 6.1891c0.02038-0.58271 0.02229-1.1639 0.0065-1.743-0.09265-3.3906-0.79345-6.7088-1.9595-9.8295m-0.66072-0.26327c-1.0316-2.963-2.41-5.741-4.0408-8.2432 4.0711 3.2706 7.3997 6.034 9.7466 8.5676 1.1757 1.2693 2.1096 2.485 2.7802 3.6916 0.67079 1.2069 1.0781 2.4041 1.2042 3.6412 8e-3 0.08283 0.0156 0.16584 0.0215 0.24904m-12.727-14.922c3.9884 3.3302 7.1877 5.9903 9.4779 8.4741 1.1379 1.2341 2.0369 2.4108 2.676 3.5797 0.63892 1.1686 1.0172 2.3281 1.1134 3.5247 0.0962 1.1964-0.0897 2.4296-0.57909 3.7435-0.48926 1.3136-1.2822 2.7087-2.4003 4.227-2.2238 3.0199-5.7838 6.5878-10.835 10.942 0.89753-1.2877 1.6647-2.6026 2.3093-3.9364 2.2983-4.7557 3.2299-9.6673 3.1125-14.468-0.14992-6.1338-2.0152-12.046-4.8828-17.005 4.3968 3.2562 7.9407 5.8802 10.49 8.3056 1.2217 1.1621 2.206 2.2704 2.9418 3.3715 0.0299 0.0447 0.0593 0.08941 0.0883 0.13413 0.74182 1.1443 1.1957 2.2957 1.3543 3.4878 0.15856 1.1923 0.0229 2.4326-0.42516 3.7614-0.44831 1.3295-1.2114 2.7542-2.3198 4.325-2.2288 3.1585-5.818 6.8672-11.14 11.711 3.4792-4.8759 4.7339-10.175 4.4547-15.334"/>
   <path d="m39.522 48.144c-3.984 3.2081-7.2442 5.8852-9.5575 8.3619-1.1562 1.2379-2.0746 2.4243-2.7327 3.6043-0.65821 1.1802-1.0554 2.3527-1.1724 3.5648-0.11697 1.2121 0.04635 2.4628 0.50729 3.8 0.46083 1.3369 1.2193 2.7606 2.2917 4.3169 2.128 3.0882 5.5615 6.786 10.362 11.29-0.95552-1.2519-1.7818-2.5328-2.4868-3.8351-2.5086-4.6336-3.4818-9.5308-3.3194-14.312 0.05467-1.6096 0.23802-3.207 0.53511-4.7782m-0.28929 6.1891c0.0025-0.58273 0.02086-1.1639 0.05439-1.743 0.1964-3.391 0.91448-6.7084 2.033-9.8295m-1.3635-0.26327c0.89462-2.9633 2.197-5.7407 3.7969-8.2432-4.1022 3.2517-7.3934 6.0529-9.6451 8.5676-1.1358 1.2685-2.0288 2.4857-2.658 3.6916-0.6295 1.2064-0.997 2.4046-1.0808 3.6412-0.0056 0.08283-0.01 0.16584-0.01301 0.24903m14.423-14.922c-4.2199 3.3081-7.5703 6.0123-9.9137 8.4741-1.1745 1.2338-2.1008 2.4112-2.7622 3.5797-0.66141 1.1685-1.0578 2.3282-1.1715 3.5247-0.11368 1.1964 0.05541 2.4296 0.5253 3.7435 0.46997 1.3141 1.2406 2.7082 2.3296 4.227 2.1907 3.0553 5.6188 6.5524 10.446 10.942-0.9591-1.2877-1.7946-2.6026-2.5153-3.9364-2.5617-4.7411-3.4818-9.682-3.1903-14.468 0.37381-6.1381 2.7414-12.041 6.2446-17.005-3.7963 3.2308-6.8327 5.9055-8.9012 8.3056-1.0005 1.1608-1.7883 2.2717-2.3417 3.3715-0.0225 0.04471-0.04463 0.08941-0.06641 0.13413-0.55836 1.1464-0.87951 2.2936-0.9307 3.4878-0.05124 1.1953 0.16794 2.4296 0.67924 3.7614 0.51151 1.3323 1.3108 2.7514 2.4101 4.325 2.1827 3.1244 5.5875 6.9012 10.141 11.711-4.1987-4.8894-6.2766-10.161-6.7212-15.334"/>
   <path d="m81.971 39.821c-3.2188-4.1418-5.9912-7.4641-8.4802-9.7341-1.2543-1.144-2.4553-2.0397-3.6409-2.6664-1.1861-0.62686-2.3594-0.98584-3.5634-1.0559-1.2043-0.0701-2.4402 0.14864-3.7555 0.67816-1.3153 0.52955-2.7099 1.3699-4.2322 2.5431-3.0415 2.344-6.6046 6.0281-11.027 11.183 1.2273-1.0103 2.4893-1.8848 3.7773-2.6329 4.3724-2.5397 9.0438-3.6108 13.63-3.5699 1.7028 0.01518 3.3942 0.18357 5.0549 0.48683m-6.1546-0.79219c0.46512-0.01989 0.92888-0.02835 1.391-0.02573 3.5316 0.02005 6.9671 0.68734 10.165 1.8449m-2.0149-1.613c2.6353 0.81824 5.1697 2.0091 7.5119 3.4798-3.3864-4.0985-6.1043-7.3111-8.5772-9.5399-1.2358-1.1138-2.41-1.9812-3.5686-2.5822-1.1583-0.60095-2.3024-0.93632-3.4743-0.98221-0.2796-0.01095-0.56081-0.0054-0.8442 0.01693m17.487 14.311c-3.5014-4.0698-6.2718-7.3087-8.8366-9.622-1.2734-1.1486-2.4801-2.0526-3.6702-2.691-1.1898-0.63833-2.3613-1.0102-3.5626-1.0955-1.2012-0.08529-2.4314 0.11599-3.7379 0.62272-1.3067 0.50678-2.6887 1.3186-4.1949 2.4542-3.0342 2.2877-6.4923 5.8195-10.942 10.836 1.2239-1.0474 2.4765-1.9568 3.7485-2.7373 4.3141-2.6474 9.0481-3.7573 13.75-3.7251 6.0938 0.04172 12.181 1.9993 17.407 5.045-3.0851-4.132-5.5343-7.426-7.8301-9.7849-1.1417-1.1731-2.2322-2.0996-3.3189-2.7614-0.11254-0.06854-0.22501-0.13422-0.33744-0.19701-0.97182-0.54276-1.957-0.86069-2.9736-0.94192-1.1348-0.09068-2.3118 0.11289-3.5719 0.63251-1.2612 0.52009-2.6074 1.357-4.0979 2.5415-2.964 2.3556-6.5622 6.1441-11.211 11.579 4.5861-3.6831 9.6141-5.1926 14.633-5.1079"/>
   <path d="m82.637 92.926c-3.2332 3.9764-5.9768 7.223-8.4802 9.4866-1.2548 1.1346-2.4548 2.028-3.6409 2.6562-1.1863 0.62831-2.3591 0.99161-3.5634 1.0681-1.2044 0.0765-2.4402-0.13385-3.7555-0.65153-1.3151-0.51759-2.7101-1.3426-4.2322-2.4954-3.0199-2.2871-6.6262-5.9389-11.027-11.04 1.2273 1.0174 2.4893 1.8945 3.7773 2.6403 4.3711 2.531 9.0452 3.5612 13.63 3.4499 1.7028-0.04132 3.3942-0.24001 5.0549-0.57779m-6.1546 0.25136c0.46512 0.0093 0.92888 0.0077 1.391-0.0047 3.532-0.09423 6.9668-0.81183 10.165-2.0068m-2.0149-0.91685c2.6349-0.95998 5.1701-2.231 7.5119-3.7338-3.4192 4.0764-6.0716 7.3195-8.5772 9.6809-1.2368 1.1656-2.409 2.0857-3.5686 2.7404-1.1591 0.65435-2.3017 1.0411-3.4743 1.1418-0.2796 0.024-0.5608 0.0317-0.8442 0.023m17.487-12.362c-3.4925 4.098-6.2807 7.3289-8.8366 9.5987-1.273 1.1306-2.4805 2.0146-3.6702 2.6316-1.1895 0.61694-2.3617 0.96725-3.5626 1.0285-1.201 0.0613-2.4316-0.16652-3.7379-0.70698-1.3066-0.54055-2.6888-1.3937-4.1949-2.5842-3.0329-2.3973-6.4935-6.0936-10.942-11.388 1.2238 0.9803 2.4765 1.8226 3.7485 2.536 4.3206 2.4233 9.0415 3.4146 13.75 3.2947 6.0958-0.15529 12.179-2.1718 17.407-5.3241-3.0906 4.0432-5.5288 7.2043-7.8301 9.436-1.1412 1.1066-2.2328 1.9669-3.3189 2.5612-0.11254 0.0616-0.22501 0.12028-0.33744 0.1761-0.97263 0.48286-1.9562 0.75887-2.9736 0.80895-1.1364 0.0559-2.3102-0.16968-3.5719-0.69718-1.2629-0.52802-2.6057-1.3545-4.0979-2.4969-2.965-2.2699-6.5612-5.8286-11.211-10.644 4.5954 4.2788 9.6049 6.4727 14.633 7.1176"/>
  </g>
 </g>
</svg>
