<?xml version="1.0" encoding="UTF-8" standalone="no"?>
<!-- Created with Inkscape (http://www.inkscape.org/) -->

<svg
   version="1.1"
   id="svg5"
   width="100px"
   height="100px"
   inkscape:version="1.2.2 (b0a8486541, 2022-12-01, custom)"
   sodipodi:docname="c"
   xmlns:inkscape="http://www.inkscape.org/namespaces/inkscape"
   xmlns:sodipodi="http://sodipodi.sourceforge.net/DTD/sodipodi-0.dtd"
   xmlns="http://www.w3.org/2000/svg"
   xmlns:svg="http://www.w3.org/2000/svg">
  <sodipodi:namedview
     id="namedview7"
     pagecolor="#505050"
     bordercolor="#eeeeee"
     borderopacity="1"
     inkscape:showpageshadow="0"
     inkscape:pageopacity="0"
     inkscape:pagecheckerboard="0"
     inkscape:deskcolor="#505050"
     inkscape:document-units="mm"
     showgrid="false"
     inkscape:zoom="3.3638608"
     inkscape:cx="70.603397"
     inkscape:cy="61.536434"
     inkscape:window-width="1920"
     inkscape:window-height="1115"
     inkscape:window-x="0"
     inkscape:window-y="0"
     inkscape:window-maximized="1"
     inkscape:current-layer="text142" />
  <defs
     id="defs2" />
  <g
     aria-label="A"
     id="text142"
     style="font-size:85.3333px">
    <rect
       style="fill:#f4ff02;fill-opacity:0.19836426;stroke:#000000;stroke-width:5;stroke-dasharray:none;stroke-opacity:1"
       id="rect509"
       width="94.126137"
       height="94.083115"
       x="2.8884804"
       y="2.901263"
       ry="46.070831" />
    <g
       aria-label="C"
       id="text1760"
       style="stroke-width:5">
      <path
         d="m 72.303624,23.588667 c 1.58028,2.500889 2.600809,7.465202 0,8.874997 -3.176762,1.721997 -5.732265,-4.56483 -9.083329,-5.916665 -3.213222,-1.296229 -6.759361,-2.289431 -10.208329,-1.958332 -5.838036,0.560448 -12.374126,2.214829 -16.333327,6.541664 -4.425615,4.836558 -5.666664,12.277537 -5.666664,18.833325 0,6.555788 1.235731,14.00164 5.666664,18.833326 3.960478,4.318681 10.499804,5.946459 16.333327,6.499997 3.44933,0.327304 6.995107,-0.662103 10.208329,-1.958332 3.351064,-1.351835 5.906567,-7.638662 9.083329,-5.916665 2.576388,1.396558 1.560735,6.311289 0,8.791663 -1.846088,2.933867 -6.058651,3.491301 -9.374996,4.499999 -3.356222,1.020827 -6.931156,1.89694 -10.416662,1.499999 -7.903317,-0.900056 -16.734867,-2.892988 -22.249991,-8.624997 -5.773949,-6.001013 -8.124996,-15.297287 -8.124996,-23.62499 0,-8.327703 2.355931,-17.619282 8.124996,-23.62499 5.513944,-5.740122 14.34292,-7.755178 22.249991,-8.666663 3.512274,-0.404876 7.114948,0.479491 10.499996,1.5 3.283353,0.98985 7.459792,1.517619 9.291662,4.416664 z"
         id="path2124"
         sodipodi:nodetypes="aaaaaaaaaaaaaaaaaaa" />
    </g>
  </g>
</svg>
