<?xml version="1.0" encoding="UTF-8" standalone="no"?>
<svg
   width="100px"
   height="100px"
   version="1.1"
   viewBox="0 0 100 100"
   id="svg3443"
   sodipodi:docname="interact.svg"
   inkscape:version="1.2.2 (b0a8486541, 2022-12-01, custom)"
   xmlns:inkscape="http://www.inkscape.org/namespaces/inkscape"
   xmlns:sodipodi="http://sodipodi.sourceforge.net/DTD/sodipodi-0.dtd"
   xmlns:xlink="http://www.w3.org/1999/xlink"
   xmlns="http://www.w3.org/2000/svg"
   xmlns:svg="http://www.w3.org/2000/svg">
  <sodipodi:namedview
     id="namedview3445"
     pagecolor="#505050"
     bordercolor="#eeeeee"
     borderopacity="1"
     inkscape:showpageshadow="0"
     inkscape:pageopacity="0"
     inkscape:pagecheckerboard="0"
     inkscape:deskcolor="#505050"
     showgrid="false"
     inkscape:zoom="6.675088"
     inkscape:cx="8.1646864"
     inkscape:cy="66.515977"
     inkscape:window-width="1920"
     inkscape:window-height="1115"
     inkscape:window-x="0"
     inkscape:window-y="0"
     inkscape:window-maximized="1"
     inkscape:current-layer="svg3443" />
  <defs
     id="defs3433">
    <linearGradient
       inkscape:collect="always"
       id="linearGradient4948">
      <stop
         style="stop-color:#ffa900;stop-opacity:0.99992198;"
         offset="0"
         id="stop4944" />
      <stop
         style="stop-color:#ffd79b;stop-opacity:0.999982;"
         offset="1"
         id="stop4946" />
    </linearGradient>
    <linearGradient
       inkscape:collect="always"
       xlink:href="#linearGradient1930"
       id="linearGradient1932"
       x1="50"
       y1="65.25"
       x2="50"
       y2="35"
       gradientUnits="userSpaceOnUse" />
    <linearGradient
       inkscape:collect="always"
       id="linearGradient1930">
      <stop
         style="stop-color:#ffa900;stop-opacity:0.49950519;"
         offset="0"
         id="stop1926" />
      <stop
         style="stop-color:#ffd79b;stop-opacity:0.49622682;"
         offset="1"
         id="stop1928" />
    </linearGradient>
    <linearGradient
       inkscape:collect="always"
       xlink:href="#linearGradient4948"
       id="linearGradient4942"
       x1="256.13861"
       y1="477.89166"
       x2="256.13861"
       y2="33.260235"
       gradientUnits="userSpaceOnUse" />
  </defs>
  <circle
     style="fill:#000000;fill-opacity:0.1952244;stroke:url(#linearGradient1932);stroke-width:0.5;stroke-dasharray:none;stroke-opacity:1"
     id="path1841"
     cy="50"
     cx="50"
     r="45" />
  <g
     class=""
     id="g8481"
     transform="matrix(-0.11114447,0,0,0.11114447,78.780332,21.593681)"
     style="fill:#000000;fill-opacity:0.200583;stroke:url(#linearGradient4942);stroke-width:8.99729874;stroke-dasharray:none;stroke-opacity:1">
    <path
       d="m 309.752,35.514 c -3.784,0.046 -7.807,0.454 -12.004,1.082 -27.198,61.067 -49.85,122.007 -65.45,182.775 -9.293,-4.313 -18.634,-8.57 -27.962,-12.845 -3.95,-53.137 1.876,-103.13 5.33,-153.757 -6.696,-5.06 -17.54,-8.82 -28.596,-8.98 -11.573,-0.166 -22.304,3.33 -28.537,9.513 -5.44,70.22 -5.258,147.354 1.133,217.475 21.926,29.733 45.877,59.903 52.305,103.64 l -18.49,2.716 c -4.24,-28.837 -17.583,-51.34 -33.238,-73.51 l -7.582,-10.55 c -5.01,-6.862 -10.134,-13.79 -15.185,-20.945 -21.397,-28.51 -44.094,-51.49 -62.155,-59.22 -9.81,-4.196 -17.273,-4.385 -24.632,-0.442 -6.486,3.474 -13.52,11.49 -20.043,25.387 53.41,51.674 70.576,104.044 82.718,138.664 5.79,16.507 11.08,31.523 21.274,47.025 15.614,23.746 49.446,42.91 84.066,49.51 34.62,6.598 68.69,0.712 86.87,-19.833 14.36,-16.227 41.232,-41.87 56.195,-57.787 24.524,-26.085 59.485,-54.964 88.597,-77.248 14.556,-11.142 27.62,-20.598 37.197,-27.178 4.79,-3.29 8.68,-5.848 11.612,-7.625 0.197,-0.12 0.34,-0.182 0.527,-0.294 1.31,-9.873 -0.448,-20.663 -4.804,-29.375 -4.358,-8.718 -10.787,-14.658 -17.763,-17.015 -35.707,21.283 -70.62,44.438 -103.877,75.438 -5.745,-7.274 -11.933,-14.06 -18.5,-20.424 30.747,-58.815 69.992,-107.75 114.28,-150.41 -1.56,-9.55 -7.76,-19.814 -16.114,-27.32 -8.4,-7.55 -18.526,-11.7 -25.852,-11.623 -45.615,46.382 -85.864,96.907 -117.5,154.463 -6.918,-4.36 -14.023,-8.513 -21.27,-12.51 18.893,-64.715 42.99,-126.426 73.5,-184.392 -12.757,-15.245 -25.477,-23.335 -42.347,-24.324 -1.205,-0.07 -2.44,-0.096 -3.7,-0.08 z"
       fill="#ffffff"
       fill-opacity="1"
       id="path8479"
       style="fill:#000000;fill-opacity:0.200583;stroke:url(#linearGradient4942);stroke-width:8.99729874;stroke-dasharray:none;stroke-opacity:1" />
  </g>
</svg>
