<?xml version="1.0" encoding="UTF-8" standalone="no"?>
<svg
   version="1.0"
   viewBox="0 0 128 128"
   id="svg6"
   sodipodi:docname="key.svg"
   inkscape:version="1.1.1 (3bf5ae0d25, 2021-09-20)"
   xmlns:inkscape="http://www.inkscape.org/namespaces/inkscape"
   xmlns:sodipodi="http://sodipodi.sourceforge.net/DTD/sodipodi-0.dtd"
   xmlns="http://www.w3.org/2000/svg"
   xmlns:svg="http://www.w3.org/2000/svg">
  <defs
     id="defs10" />
  <sodipodi:namedview
     id="namedview8"
     pagecolor="#505050"
     bordercolor="#eeeeee"
     borderopacity="1"
     inkscape:pageshadow="0"
     inkscape:pageopacity="0"
     inkscape:pagecheckerboard="0"
     showgrid="false"
     inkscape:zoom="3.9719514"
     inkscape:cx="62.186058"
     inkscape:cy="46.954251"
     inkscape:current-layer="svg6" />
  <path
     d="m 29.078,18.6991 c -3.9413,0.4266 -6.3791,2.7427 -6.8667,6.5619 l -6.6004,58.794 c 0.5891,3.1692 2.641,5.2415 5.8509,5.9119 1.544,0.325 83.294,0.325 84.798,0 2.356,-0.5078 4.225,-1.8285 5.14,-3.6365 l -5.91,-61.191 c -0.508,-3.8601 -2.865,-6.0136 -7.1309,-6.4605 -2.3566,-0.2437 -66.924,-0.2234 -69.281,0.0211 z"
     fill="#82beff"
     fill-opacity="0.80365"
     stroke="#004b99"
     stroke-linecap="round"
     stroke-linejoin="round"
     stroke-width="3"
     id="path2" />
  <path
     d="m 9.4738,43.832 -9.1195,74.922 c 0.60947,4.083 2.7629,6.765 6.4604,8.045 l 1.3815,0.467 h 55.563 c 60.744,0 56.336,0.081 58.794,-1.199 2.499,-1.3 4.104,-3.575 4.713,-6.684 l 0.345,-1.787 -9.343,-75.764 c -2.862,-6.2563 -5.564,-15.051 -8.491,-20.133 l 7.189,67.373 c 2.138,10.666 4.26,21.336 6.42,31.998 0.223,1.056 -0.325,-0.305 -4.368,-10.564 -2.255,-5.7497 -4.327,-10.91 -4.612,-11.438 -0.69,-1.4017 -1.747,-2.4582 -2.966,-3.0067 l -1.056,-0.4876 h -46.523 -46.523 l -1.0564,0.4876 c -1.1986,0.5282 -2.255,1.5846 -2.9255,2.8847 -0.3453,0.7112 -5.8915,14.607 -8.3497,20.966 -0.34536,0.873 -0.62979,1.564 -0.67041,1.523 -0.02033,-0.04 1.4018,-7.232 3.1692,-16.008 l 3.2302,-15.948 7.3115,-65.719 c 0.0203,-0.4066 0,-0.7518 -0.061,-0.7518 -3.0961,7.2973 -5.3144,12.914 -8.5122,20.824 z"
     fill="#017aff"
     fill-opacity="0.80137"
     id="path4" />
</svg>
