<?xml version="1.0" encoding="UTF-8" standalone="no"?>
<svg
   id="SVGRoot"
   version="1.1"
   viewBox="0 0 100 100"
   sodipodi:docname="logo.svg"
   inkscape:export-filename="C:\Users\nico\Sync\CabaneTD3\logo\logo16.png"
   inkscape:export-xdpi="15.36"
   inkscape:export-ydpi="15.36"
   inkscape:version="1.1.1 (3bf5ae0d25, 2021-09-20)"
   xmlns:inkscape="http://www.inkscape.org/namespaces/inkscape"
   xmlns:sodipodi="http://sodipodi.sourceforge.net/DTD/sodipodi-0.dtd"
   xmlns="http://www.w3.org/2000/svg"
   xmlns:svg="http://www.w3.org/2000/svg">
  <defs
     id="defs21" />
  <sodipodi:namedview
     id="namedview19"
     pagecolor="#505050"
     bordercolor="#eeeeee"
     borderopacity="1"
     inkscape:pageshadow="0"
     inkscape:pageopacity="0"
     inkscape:pagecheckerboard="0"
     showgrid="false"
     inkscape:zoom="5.0840978"
     inkscape:cx="45.140753"
     inkscape:cy="39.535038"
     inkscape:current-layer="SVGRoot" />
  <g
     transform="matrix(0.79573036,0,0,0.79573036,-2.4468837,-78.382145)"
     stroke-width="0.22011"
     id="g16"
     inkscape:export-filename="C:\Users\nico\Sync\CabaneTD3\logo\logo16.png"
     inkscape:export-xdpi="3686.3999"
     inkscape:export-ydpi="3686.3999">
    <path
       d="m 54.592,190.4 c -1.6351,-1.323 -1.3063,-4.3917 0.40516,-3.782 1.2778,0.45514 2.081,2.7334 1.277,3.6219 -0.4483,0.49537 -1.1816,0.56518 -1.6822,0.16014 z m -19.29,-7.9627 c -1.0605,-1.2079 -1.1844,-2.7154 -0.2635,-3.2082 0.89882,-0.48104 2.2788,0.67073 2.5527,2.1305 0.34522,1.8402 -1.045,2.4947 -2.2892,1.0777 z m 41.337,-20.495 c 0,-0.16927 1.7508,-0.89598 4.2793,-1.7762 2.6265,-0.91435 6.4475,-1.7116 10.418,-2.1735 4.3654,-0.50796 6.0592,-1.2752 8.4794,-3.8407 0.80601,-0.85441 1.7641,-2.0742 2.129,-2.7106 0.9586,-1.6715 0.81938,-1.0756 -0.21174,0.90634 -1.6388,3.15 -4.2074,5.7409 -6.9247,6.985 -1.0204,0.46716 -1.7164,0.61094 -3.2932,0.6803 -5.2206,0.22967 -9.5502,0.72318 -12.09,1.3781 -2.8349,0.73093 -2.7855,0.72117 -2.7855,0.55126 z m -26.571,-15.235 c 0.06648,-1.9067 0.24318,-5.4478 0.39267,-7.869 0.27149,-4.3973 0.11234,-9.6565 -0.46764,-15.454 -0.21008,-2.0999 -0.78865,-3.9905 -1.4422,-4.7126 -0.20749,-0.22928 -0.31744,-0.4767 -0.24432,-0.54982 0.22422,-0.22421 2.5416,2.117 3.1203,3.1523 0.43428,0.77701 0.61113,1.5889 0.86846,3.9871 0.77791,7.2496 0.66657,10.546 -0.63708,18.864 -0.30324,1.9347 -0.5516,3.9232 -0.55191,4.4189 -4.4e-4,0.84054 -0.47632,1.6299 -0.9824,1.6299 -0.09723,0 -0.12238,-1.56 -0.05591,-3.4668 z m 19.307,0.99637 c 0,-0.51068 1.7367,-2.754 3.2135,-4.1509 1.8199,-1.7214 2.7028,-2.0938 1.0078,-0.42506 -0.76536,0.75354 -1.9904,2.1272 -2.7224,3.0526 -0.73195,0.92541 -1.3686,1.7238 -1.4149,1.7743 -0.04622,0.0504 -0.08404,-0.0625 -0.08404,-0.25093 z"
       fill="#6bcaca"
       id="path2" />
    <path
       d="m 47.584,207.07 c -0.18159,-0.0356 -1.073,-0.18247 -1.981,-0.32643 -0.90796,-0.14395 -2.0504,-0.49116 -2.5386,-0.77156 -1.0299,-0.59146 -5.4157,-5.0447 -6.4528,-6.5521 -3.0348,-4.4109 -6.0229,-16.058 -6.0268,-23.49 -0.0026,-5.0027 0.96175,-9.0203 3.355,-13.977 1.4066,-2.9134 2.7288,-4.8361 5.0903,-7.4025 1.0728,-1.1659 1.9506,-2.1808 1.9506,-2.2554 0,-0.0746 -0.64975,-0.80449 -1.4439,-1.6221 -3.1814,-3.2752 -5.8727,-8.1261 -6.9308,-12.492 -0.988,-4.0768 -0.24122,-9.87 1.7166,-13.317 1.438,-2.5316 6.5647,-8.3788 8.0228,-9.1503 0.86145,-0.45581 1.8083,-0.38762 2.9898,0.21533 1.3435,0.68561 2.9092,1.8298 2.9092,2.126 0,0.12751 -0.47049,-0.15955 -1.0455,-0.6379 -2.2697,-1.8881 -3.7993,-2.2295 -5.2497,-1.1718 -2.5239,1.8407 -7.2094,7.7676 -8.2301,10.411 -0.92406,2.393 -1.0865,3.2372 -1.2455,6.4729 -0.11411,2.3219 -0.06684,3.2075 0.24673,4.6224 0.98705,4.4536 3.6031,9.2307 7.0022,12.787 l 1.7133,1.7924 -1.8943,1.9498 c -4.1,4.2202 -7.0276,9.9189 -8.2614,16.081 -1.1231,5.6096 -0.22601,13.839 2.3707,21.747 1.7607,5.3619 2.8221,7.2066 6.1291,10.652 2.5498,2.6565 3.4469,3.2911 5.2123,3.6874 3.7649,0.84514 11.204,0.51775 15.873,-0.69851 7.3385,-1.9118 15.898,-7.2232 20.872,-12.952 5.0537,-5.8202 8.1068,-12.762 8.108,-18.434 6.6e-4,-3.1279 -1.2829,-8.067 -2.9637,-11.405 -0.56055,-1.1131 -0.70734,-1.5916 -0.50798,-1.656 0.15421,-0.0498 1.1718,-0.12701 2.2614,-0.17161 1.5481,-0.0634 2.2456,-0.20449 3.1916,-0.64571 0.66584,-0.31054 1.5078,-0.6232 1.8709,-0.69482 0.96455,-0.19018 -1.5019,0.93658 -2.8615,1.3072 -0.60531,0.16501 -1.8187,0.3012 -2.6964,0.30264 -0.94494,0.002 -1.5958,0.095 -1.5958,0.229 0,0.12451 0.3025,0.82564 0.67223,1.5581 1.5856,3.1411 2.8496,8.1394 2.8496,11.269 0,1.5261 -0.49105,4.8002 -0.88132,5.8763 -1.0705,2.9518 -1.9409,4.9306 -2.7917,6.3473 -4.3387,7.2239 -9.4184,11.919 -17.464,16.142 -4.3987,2.3087 -8.1941,3.49 -12.98,4.0398 -2.3919,0.27479 -7.3908,0.39965 -8.3642,0.20892 z m 47.764,-47.955 c 0,-0.0476 0.15372,-0.1455 0.3416,-0.21759 0.19588,-0.0752 0.28424,-0.0383 0.20712,0.0865 -0.12926,0.20915 -0.54872,0.30936 -0.54872,0.13109 z m 1.4307,-0.88741 c 0.36318,-0.31504 0.85844,-0.67575 1.1006,-0.80158 0.24216,-0.12583 0.14307,0.029 -0.22011,0.34401 -0.36318,0.31504 -0.85844,0.67575 -1.1006,0.80158 -0.24216,0.12583 -0.14307,-0.029 0.22011,-0.34401 z m 2.3194,-1.9217 c -0.0045,-0.0793 0.31365,-0.53006 0.7071,-1.0016 0.39345,-0.47154 0.89302,-1.1 1.1102,-1.3965 0.38724,-0.52889 0.38773,-0.52611 0.0256,0.14564 -0.39929,0.74069 -1.8293,2.4886 -1.8428,2.2525 z m 2.7884,-4.2518 c 0.3249,-0.66246 0.62763,-1.1676 0.67274,-1.1224 0.0989,0.0989 -1.0114,2.3269 -1.1595,2.3269 -0.0572,0 0.16187,-0.54201 0.48677,-1.2045 z m 0.6617,-1.5737 c -0.0841,-0.0841 -0.0649,-0.261 0.0425,-0.3932 0.31832,-0.39171 1.5406,-4.0005 2.3494,-6.9363 0.86962,-3.1568 0.94341,-4.3386 0.32036,-5.1306 -0.83112,-1.0566 -1.2032,-1.0974 -9.0715,-0.99498 -6.3982,0.0833 -7.6574,0.15756 -9.8656,0.58189 -5.6862,1.0927 -7.8962,1.8388 -10.125,3.4184 -0.95034,0.67348 -1.7609,1.0905 -1.7609,0.90591 0,-0.17836 2.0825,-1.485 3.5227,-2.2103 1.587,-0.79922 4.2681,-1.5474 8.3633,-2.3339 2.202,-0.42289 3.4751,-0.49865 9.787,-0.58241 7.8182,-0.10374 8.6477,-0.0185 9.2848,0.95381 0.79822,1.2182 0.7565,2.1457 -0.26089,5.7991 -1.4014,5.0325 -2.2376,7.2709 -2.586,6.9225 z m -33.526,-2.7248 c -0.31388,-0.31388 -3.7584,-1.0252 -6.4612,-1.3343 -2.5189,-0.28808 -5.9615,-0.15146 -8.4842,0.33671 -0.84743,0.16398 -1.6094,0.23272 -1.6932,0.15274 -0.08382,-0.08 0.13276,-1.4826 0.48129,-3.1169 1.0513,-4.9296 1.3856,-8.0615 1.222,-11.446 -0.24048,-4.973 -0.72327,-7.4524 -1.6906,-8.6821 -0.24353,-0.30959 -0.40131,-0.73616 -0.35063,-0.94792 0.1239,-0.51767 1.1316,1.6191 1.5831,3.3569 0.18873,0.72636 0.45858,2.9791 0.59966,5.0061 0.29622,4.2558 0.10128,6.668 -0.94571,11.702 -0.82382,3.9611 -0.82398,3.9533 0.07868,3.8032 0.39345,-0.0655 1.9783,-0.24353 3.5219,-0.39571 3.173,-0.31283 6.3353,-0.0893 10.015,0.70791 1.1411,0.24723 2.2034,0.40011 2.3607,0.33975 0.19304,-0.0741 0.24998,0.028 0.17519,0.31401 -0.12893,0.49302 -0.12447,0.49082 -0.41184,0.20344 z"
       fill="#a3a5a5"
       id="path4" />
    <path
       d="m 52.247,193.12 c -1.3154,-0.33365 -2.8695,-1.5709 -3.263,-2.5978 -0.72562,-1.8935 0.11757,-3.8903 1.982,-4.6937 2.5287,-1.0896 5.5488,-1.2958 8.8234,-0.60238 3.6816,0.77957 2.8446,4.8484 -1.4643,7.1187 -1.4507,0.76431 -1.7891,0.85223 -3.478,0.90344 -1.029,0.0312 -2.1991,-0.0265 -2.6002,-0.12825 z m 4.0265,-2.8713 c 0.29956,-0.33101 0.36432,-0.656 0.27035,-1.3566 -0.3486,-2.599 -3.0173,-3.266 -3.0173,-0.75422 0,1.9183 1.723,3.2423 2.7469,2.1109 z m -19.585,-3.432 c -1.5449,-0.80186 -2.6113,-2.2887 -3.5325,-4.9255 -0.94956,-2.7178 -0.91443,-6.4603 0.06364,-6.781 0.48638,-0.15945 2.9269,2.419 4.4632,4.7154 2.0912,3.1259 2.4956,5.2378 1.2951,6.7639 -0.52161,0.66312 -1.3006,0.74041 -2.2894,0.22716 z m 0.80276,-4.15 c 0.70701,-1.5517 -1.1391,-4.1321 -2.4531,-3.4288 -0.92086,0.49282 -0.79704,2.0003 0.2635,3.2082 0.82709,0.942 1.8155,1.0416 2.1896,0.2206 z m 13.379,-12.895 c -1.38,-0.23367 -3.1938,-1.193 -4.0758,-2.1557 -0.99094,-1.0817 -1.7204,-3.0695 -1.5808,-4.3078 0.36255,-3.2165 3.3218,-6.1409 7.0548,-6.9716 1.0189,-0.22674 1.5647,-0.22956 2.734,-0.0141 1.5103,0.27829 2.2661,0.57072 2.2661,0.87678 0,0.0972 -0.98988,0.50087 -2.1997,0.89713 -2.5902,0.84834 -3.5158,1.6056 -4.5901,3.7555 -1.115,2.2314 -0.85882,4.4481 0.75415,6.5253 0.93616,1.2056 1.1598,1.6458 0.80807,1.5906 -0.0908,-0.0142 -0.61758,-0.1025 -1.1706,-0.19614 z"
       fill="#02cbcb"
       id="path6" />
    <path
       d="m 47.584,206.85 c -0.18159,-0.0368 -1.1034,-0.18887 -2.0485,-0.3379 -2.176,-0.34315 -2.9996,-0.87835 -5.7309,-3.724 -2.4735,-2.577 -3.6392,-4.2261 -4.6312,-6.5511 -0.88778,-2.081 -2.165,-5.933 -2.7548,-8.3086 -0.69059,-2.7813 -1.5661,-8.4376 -1.5317,-9.8959 0.02818,-1.1948 0.04857,-1.1287 0.20086,0.6512 0.63223,7.3896 3.3298,16.75 5.9311,20.581 1.1425,1.6824 4.5822,5.2888 5.8372,6.12 0.64051,0.42426 1.5343,0.7395 2.6795,0.94503 1.8406,0.33035 7.2092,0.41037 10.523,0.15685 l 1.981,-0.15157 -2.2011,0.29578 c -1.9345,0.25995 -7.3449,0.40385 -8.2542,0.21952 z m 12.766,-1.1777 c 1.2711,-0.33141 2.6491,-0.72068 3.0622,-0.86504 0.41308,-0.14436 0.79094,-0.22259 0.83968,-0.17385 0.18274,0.18275 -5.1595,1.6917 -5.8693,1.6578 -0.18906,-0.009 0.69629,-0.28755 1.9674,-0.61896 z m 7.3737,-2.7532 c 1.8159,-0.8942 3.3365,-1.5936 3.379,-1.5542 0.10445,0.0967 -6.1473,3.1821 -6.4453,3.1809 -0.12947,-4.4e-4 1.2504,-0.73256 3.0663,-1.6268 z m 3.6318,-1.7528 c 0,-0.0508 1.1143,-0.83455 2.4763,-1.7417 5.2091,-3.4696 8.9095,-7.3976 12.168,-12.917 1.0606,-1.7961 1.5162,-2.3624 0.84959,-1.056 -0.79747,1.5628 -3.644,5.655 -5.1,7.3319 -1.7305,1.9929 -4.3633,4.3863 -6.4608,5.8734 -1.738,1.2322 -3.9334,2.6325 -3.9334,2.5089 z m 15.864,-16.711 c -0.0086,-0.0944 0.21947,-0.73827 0.50671,-1.4307 0.28724,-0.69245 0.64379,-1.6371 0.79233,-2.0992 0.14854,-0.46209 0.30998,-0.80026 0.35876,-0.75148 0.04878,0.0488 -0.09941,0.62495 -0.32932,1.2804 -0.49558,1.4129 -1.3064,3.2445 -1.3285,3.001 z m 1.8807,-5.4447 c 0.06563,-0.54674 0.20678,-1.3391 0.31368,-1.7609 0.15722,-0.62029 0.17067,-0.54363 0.07041,0.40123 -0.06817,0.64243 -0.20933,1.4348 -0.31368,1.7609 -0.14157,0.44236 -0.15944,0.34052 -0.07041,-0.40122 z m -58.319,-4.3987 c 0.41588,-7.5736 3.6425,-15.062 8.7601,-20.329 l 1.8943,-1.9498 -1.7133,-1.7924 c -3.3991,-3.5559 -6.0151,-8.333 -7.0022,-12.787 -0.31357,-1.4148 -0.36084,-2.3004 -0.24673,-4.6224 0.15902,-3.2358 0.32146,-4.08 1.2455,-6.4729 0.73245,-1.8968 3.2793,-5.4595 5.8292,-8.1545 2.8445,-3.0063 3.7661,-3.3801 5.7968,-2.3511 1.1015,0.55819 3.2039,2.326 3.5621,2.9953 0.11571,0.21621 -0.36284,-0.18012 -1.0635,-0.88073 -1.4378,-1.4378 -3.1855,-2.4256 -4.2914,-2.4256 -0.914,0 -1.9805,0.74969 -3.7916,2.6653 -1.4802,1.5656 -3.8922,4.6249 -4.8342,6.1315 -2.0563,3.2889 -2.8973,9.3476 -1.8802,13.545 1.0582,4.3664 3.5897,8.898 6.9127,12.374 l 1.7297,1.8094 -1.7692,1.7884 c -2.2471,2.2714 -4.1226,4.9073 -5.5209,7.7593 -1.9597,3.997 -2.8907,7.4324 -3.5305,13.027 l -0.20136,1.7609 z m 58.888,0.0839 c -0.08976,-3.6213 -1.2929,-8.3286 -2.9902,-11.699 -0.57708,-1.1459 -0.70722,-1.5924 -0.51899,-1.7807 0.14362,-0.14362 0.96308,-0.25176 1.9131,-0.25246 0.91401,-6.6e-4 2.058,-0.12377 2.5423,-0.27354 l 0.88045,-0.2723 -3.3017,-0.237 2.0366,-0.10322 c 1.3038,-0.0661 2.0114,-0.024 1.9665,0.1169 -0.14535,0.45624 -2.257,0.97131 -4.0214,0.98086 -0.97858,0.005 -1.8406,0.071 -1.9155,0.14593 -0.07496,0.075 0.21141,0.82674 0.63638,1.6706 1.7925,3.5594 3.0309,8.6005 2.8921,11.772 l -0.07525,1.7188 z m -14.131,-12.294 c 0,-0.0574 0.30805,-0.2637 0.68456,-0.4584 0.37651,-0.1947 0.61829,-0.24677 0.53729,-0.11571 -0.081,0.13106 -0.01761,0.24526 0.14086,0.25377 0.38912,0.0209 -0.49192,0.38977 -0.97751,0.40928 -0.21186,0.009 -0.3852,-0.0315 -0.3852,-0.0889 z m 1.9397,-0.48618 c 0.15889,-0.0636 0.34874,-0.0558 0.42188,0.0174 0.07314,0.0731 -0.05686,0.12516 -0.2889,0.11561 -0.25642,-0.0106 -0.30858,-0.0627 -0.13298,-0.13299 z m 0.77498,-0.21649 c 0.08071,-0.0807 0.21278,-0.0807 0.29348,0 0.08071,0.0807 0.01467,0.14674 -0.14674,0.14674 -0.16141,0 -0.22745,-0.066 -0.14674,-0.14674 z m 0.7658,-0.22373 c 0.15889,-0.0636 0.34874,-0.0558 0.42188,0.0174 0.07314,0.0731 -0.05686,0.12516 -0.2889,0.1156 -0.25642,-0.0106 -0.30857,-0.0627 -0.13298,-0.13298 z m -1.4261,-0.21649 c 0.08071,-0.0807 0.21278,-0.0807 0.29348,0 0.08071,0.0807 0.01467,0.14674 -0.14674,0.14674 -0.16142,0 -0.22745,-0.066 -0.14674,-0.14674 z m 2.3066,-0.004 c 0.15889,-0.0636 0.34874,-0.0558 0.42188,0.0174 0.07314,0.0731 -0.05686,0.12517 -0.2889,0.11561 -0.25642,-0.0106 -0.30858,-0.0627 -0.13298,-0.13298 z m 0.88045,-0.22011 c 0.15889,-0.0636 0.34874,-0.0558 0.42188,0.0174 0.07314,0.0731 -0.05686,0.12517 -0.2889,0.11561 -0.25642,-0.0106 -0.30857,-0.0627 -0.13298,-0.13298 z m -2.0865,-0.2165 c 0.08071,-0.0807 0.21278,-0.0807 0.29348,0 0.08071,0.0807 0.01467,0.14674 -0.14674,0.14674 -0.16142,0 -0.22745,-0.066 -0.14674,-0.14675 z m 3.1733,8.8e-4 c 0.15133,-0.0611 0.39895,-0.0611 0.55028,0 0.15133,0.0611 0.02751,0.11103 -0.27514,0.11103 -0.30265,0 -0.42647,-0.05 -0.27514,-0.11103 z m 1.4307,-0.22606 c 0.21186,-0.0554 0.55853,-0.0554 0.77039,0 0.21186,0.0554 0.03852,0.10066 -0.3852,0.10066 -0.42372,0 -0.59705,-0.0453 -0.3852,-0.10066 z m -3.5034,-0.21513 c 0.08071,-0.0807 0.21278,-0.0807 0.29348,0 0.08071,0.0808 0.01467,0.14682 -0.14674,0.14682 -0.16142,0 -0.22745,-0.066 -0.14674,-0.14674 z m 6.0347,-0.009 c 0.27239,-0.0525 0.71811,-0.0525 0.9905,0 0.27239,0.0525 0.04952,0.0954 -0.49525,0.0954 -0.54478,0 -0.76764,-0.0429 -0.49525,-0.0954 z m -5.3744,-0.21152 c 0.08071,-0.0807 0.21278,-0.0807 0.29348,0 0.08071,0.0808 0.01467,0.14683 -0.14674,0.14683 -0.16142,0 -0.22745,-0.066 -0.14674,-0.14674 z m 0.66034,-0.22011 c 0.08071,-0.0807 0.21278,-0.0807 0.29348,0 0.08071,0.0808 0.01467,0.14683 -0.14674,0.14683 -0.16141,0 -0.22745,-0.066 -0.14674,-0.14674 z m 0.66033,-0.22011 c 0.08071,-0.0807 0.21278,-0.0807 0.29348,0 0.08071,0.0808 0.01467,0.14683 -0.14674,0.14683 -0.16141,0 -0.22745,-0.066 -0.14674,-0.14674 z m 0.66034,-0.22011 c 0.08071,-0.0807 0.21278,-0.0807 0.29348,0 0.08071,0.0808 0.01467,0.14683 -0.14674,0.14683 -0.16141,0 -0.22745,-0.066 -0.14674,-0.14675 z m 0.76581,-0.22373 c 0.15889,-0.0636 0.34874,-0.0558 0.42188,0.0174 0.07314,0.0731 -0.05686,0.12517 -0.2889,0.11561 -0.25642,-0.0106 -0.30858,-0.0627 -0.13298,-0.13298 z m 0.99509,-0.21649 c 0.08071,-0.0807 0.21278,-0.0807 0.29348,0 0.08071,0.0808 0.01467,0.14682 -0.14674,0.14682 -0.16142,0 -0.22745,-0.066 -0.14674,-0.14674 z m 0.98592,-0.22374 c 0.15889,-0.0636 0.34874,-0.0558 0.42188,0.0174 0.07314,0.0731 -0.05686,0.12517 -0.2889,0.11561 -0.25642,-0.0106 -0.30857,-0.0627 -0.13298,-0.13298 z m 1.1006,-0.22011 c 0.15889,-0.0636 0.34874,-0.0558 0.42188,0.0174 0.07314,0.0731 -0.05686,0.12516 -0.2889,0.11561 -0.25642,-0.0106 -0.30857,-0.0627 -0.13298,-0.13299 z m 1.0868,-0.21552 c 0.15133,-0.0611 0.39895,-0.0611 0.55028,0 0.15133,0.0611 0.02751,0.11102 -0.27514,0.11102 -0.30265,0 -0.42647,-0.05 -0.27514,-0.11102 z m 1.3207,-0.22012 c 0.15133,-0.0611 0.39895,-0.0611 0.55028,0 0.15133,0.0611 0.02751,0.11103 -0.27514,0.11103 -0.30265,0 -0.42647,-0.05 -0.27514,-0.11103 z m 1.6508,-0.22606 c 0.21186,-0.0554 0.55853,-0.0554 0.77039,0 0.21186,0.0554 0.03852,0.10066 -0.3852,0.10066 -0.42372,0 -0.59705,-0.0453 -0.3852,-0.10066 z m 2.2053,-0.22092 c 0.21416,-0.0558 0.51131,-0.0521 0.66034,0.008 0.14902,0.0603 -0.0262,0.10595 -0.38938,0.10147 -0.36318,-0.004 -0.48511,-0.0538 -0.27095,-0.10963 z m 1.4403,-0.21793 c 0.15889,-0.0636 0.34874,-0.0558 0.42188,0.0174 0.07314,0.0731 -0.05686,0.12517 -0.2889,0.11561 -0.25642,-0.0106 -0.30858,-0.0627 -0.13298,-0.13298 z m 0.77498,-0.2165 c 0.08071,-0.0807 0.21278,-0.0807 0.29348,0 0.08071,0.0808 0.01467,0.14683 -0.14674,0.14683 -0.16141,0 -0.22745,-0.066 -0.14674,-0.14674 z m 0.66034,-0.22011 c 0.08071,-0.0807 0.21278,-0.0807 0.29348,0 0.08071,0.0808 0.01467,0.14683 -0.14674,0.14683 -0.16141,0 -0.22745,-0.066 -0.14674,-0.14674 z m 2.0177,-0.95373 c 0.07482,-0.12106 0.18556,-0.22011 0.24609,-0.22011 0.06053,0 0.04884,0.0991 -0.02598,0.22011 -0.07482,0.12106 -0.18556,0.22011 -0.24609,0.22011 -0.06053,0 -0.04884,-0.0991 0.02598,-0.22011 z m 0.55028,-0.30322 c 0,-0.0457 0.17334,-0.21904 0.3852,-0.38519 0.34911,-0.27379 0.3569,-0.26601 0.0831,0.0831 -0.28755,0.36665 -0.4683,0.48325 -0.4683,0.30209 z m 2.3112,-2.3381 c 0.21912,-0.24212 0.44792,-0.44022 0.50845,-0.44022 0.0605,0 -0.0692,0.1981 -0.28834,0.44022 -0.21912,0.24212 -0.44792,0.44022 -0.50845,0.44022 -0.06053,0 0.0692,-0.1981 0.28834,-0.44022 z m 1.2832,-1.8431 c 0.38381,-0.65288 0.73464,-1.1536 0.77961,-1.1127 0.10741,0.0977 -1.0189,2.0163 -1.2775,2.1761 -0.11,0.068 0.11404,-0.41058 0.49786,-1.0635 z m -51.138,-1.5409 c 0,-0.0457 0.17334,-0.21904 0.3852,-0.38519 0.34911,-0.27379 0.3569,-0.26601 0.08311,0.0831 -0.28755,0.36665 -0.4683,0.48325 -0.4683,0.30209 z m 52.071,-0.20153 c 0.0827,-0.21707 0.20573,-0.33924 0.2735,-0.27147 0.0678,0.0678 1.4e-4,0.24538 -0.15028,0.39469 -0.21739,0.21577 -0.24267,0.19049 -0.12322,-0.12322 z m -52.646,-2.5768 c 0,-1.5133 0.03517,-2.1323 0.07815,-1.3757 0.04298,0.75663 0.04298,1.9948 0,2.7514 -0.04298,0.75664 -0.07815,0.13757 -0.07815,-1.3757 z m 18.412,2.5129 c 0.0043,-0.11098 0.14936,-0.4494 0.32237,-0.75205 0.60568,-1.0595 0.4542,-1.257 -1.2656,-1.6502 -4.137,-0.94584 -7.6877,-1.139 -12.381,-0.67353 -1.054,0.10453 -1.0633,0.10084 -0.22011,-0.0873 1.7614,-0.39299 5.502,-0.50972 7.8239,-0.24416 2.7989,0.32011 6.095,1.0122 6.5267,1.3705 0.25662,0.21298 0.42265,0.14004 0.86854,-0.38156 0.39964,-0.46751 -0.93373,1.622 -1.6135,2.5284 -0.03783,0.0504 -0.06527,8.8e-4 -0.06098,-0.11005 z m 34.556,-0.642 c 0,-0.12106 0.096,-0.36868 0.21336,-0.55027 0.11736,-0.1816 0.21337,-0.23112 0.21337,-0.11006 0,0.12106 -0.096,0.36869 -0.21337,0.55028 -0.11735,0.18159 -0.21336,0.23112 -0.21336,0.11005 z m -51.677,-1.3207 c 0.0024,-0.48424 0.04752,-0.65642 0.10017,-0.38262 0.05265,0.2738 0.05065,0.67 -0.0044,0.88044 -0.05509,0.21045 -0.09817,-0.0136 -0.09573,-0.49782 z m 52.111,0.11006 c 0,-0.16141 0.066,-0.22745 0.14674,-0.14674 0.0807,0.0807 0.0807,0.21277 0,0.29348 -0.0807,0.0807 -0.14674,0.0147 -0.14674,-0.14674 z m 0.22011,-0.66033 c 0,-0.16142 0.066,-0.22745 0.14674,-0.14675 0.0807,0.0807 0.0807,0.21278 0,0.29349 -0.0807,0.0807 -0.14674,0.0147 -0.14674,-0.14674 z m -51.386,-0.3852 c -0.11409,-0.29969 -0.08776,-0.32677 0.11861,-0.12198 0.14589,0.14477 0.57272,0.2204 0.94851,0.16807 0.6226,-0.0867 0.63441,-0.0778 0.13298,0.10003 -0.83872,0.29751 -1.0406,0.27293 -1.2001,-0.14612 z m 51.606,-0.27514 c 0,-0.16141 0.066,-0.22745 0.14674,-0.14674 0.0807,0.0807 0.0807,0.21277 0,0.29348 -0.0807,0.0807 -0.14674,0.0147 -0.14674,-0.14674 z m -32.907,-0.44022 c 0.21912,-0.24212 0.44792,-0.44023 0.50845,-0.44023 0.06053,0 -0.06922,0.19811 -0.28834,0.44023 -0.21912,0.24212 -0.44792,0.44022 -0.50845,0.44022 -0.06053,0 0.06922,-0.1981 0.28834,-0.44022 z m -19.445,-0.22011 c 0,-0.30266 0.04996,-0.42647 0.11102,-0.27514 0.06106,0.15132 0.06106,0.39895 0,0.55028 -0.06106,0.15132 -0.11102,0.0275 -0.11102,-0.27514 z m 0.87588,0.11005 c -0.0051,-0.24212 0.27482,-1.7279 0.622,-3.3017 0.34718,-1.5738 0.63624,-2.6634 0.64237,-2.4212 0.0061,0.24212 -0.27377,1.7279 -0.622,3.3017 -0.34823,1.5738 -0.6373,2.6634 -0.64237,2.4212 z m 51.696,-0.11005 c 0,-0.16142 0.066,-0.22745 0.14674,-0.14675 0.0807,0.0807 0.0807,0.21278 0,0.29349 -0.0807,0.0807 -0.14674,0.0147 -0.14674,-0.14674 z m -32.577,-0.5091 c 0,-0.0379 0.32191,-0.3598 0.71536,-0.71536 l 0.71536,-0.64649 -0.64649,0.71536 c -0.60262,0.66682 -0.78424,0.81654 -0.78424,0.64649 z m 32.797,-0.15124 c 0,-0.16141 0.066,-0.22745 0.14674,-0.14674 0.0807,0.0807 0.0807,0.21277 0,0.29348 -0.0807,0.0807 -0.14674,0.0147 -0.14674,-0.14674 z m -52.572,-0.88045 c 0,-0.30265 0.04996,-0.42646 0.11102,-0.27513 0.06106,0.15132 0.06106,0.39895 0,0.55027 -0.06106,0.15133 -0.11102,0.0275 -0.11102,-0.27514 z m 52.809,0.0917 c 0.0106,-0.25642 0.0627,-0.30858 0.13298,-0.13299 0.0636,0.1589 0.0558,0.34874 -0.0174,0.42189 -0.0731,0.0731 -0.12517,-0.0569 -0.11561,-0.2889 z m -54.319,-1.1923 c 0,-0.66584 0.04126,-0.93823 0.0917,-0.60531 0.05043,0.33292 0.05043,0.8777 0,1.2106 -0.05043,0.33292 -0.0917,0.0605 -0.0917,-0.6053 z m 54.522,0.44022 c 0,-0.16141 0.066,-0.22745 0.14674,-0.14674 0.0807,0.0807 0.0807,0.21277 0,0.29348 -0.0807,0.0807 -0.14674,0.0147 -0.14674,-0.14674 z m -31.696,-0.0831 c 0,-0.0457 0.17334,-0.21904 0.3852,-0.38519 0.34911,-0.27379 0.3569,-0.26601 0.08311,0.0831 -0.28755,0.36666 -0.4683,0.48326 -0.4683,0.30209 z m -21.096,-0.57722 c 0,-0.30266 0.04996,-0.42647 0.11102,-0.27514 0.06106,0.15132 0.06106,0.39895 0,0.55027 -0.06106,0.15133 -0.11102,0.0275 -0.11102,-0.27513 z m 53.03,-0.1284 c 0.0106,-0.25642 0.0627,-0.30858 0.13298,-0.13299 0.0636,0.15889 0.0558,0.34874 -0.0174,0.42188 -0.0731,0.0731 -0.12516,-0.0569 -0.11561,-0.28889 z m -31.053,0.0595 c 0,-0.0379 0.32191,-0.35979 0.71536,-0.71536 l 0.71536,-0.64649 -0.64649,0.71536 c -0.60262,0.66682 -0.78424,0.81654 -0.78424,0.64649 z m 31.273,-0.93997 c 0.0106,-0.25642 0.0627,-0.30857 0.13298,-0.13298 0.0636,0.15889 0.0558,0.34873 -0.0174,0.42188 -0.0731,0.0731 -0.12516,-0.0569 -0.1156,-0.2889 z m -53.03,-0.31182 c 0,-0.30266 0.04996,-0.42647 0.11102,-0.27514 0.06106,0.15132 0.06106,0.39895 0,0.55028 -0.06106,0.15132 -0.11102,0.0275 -0.11102,-0.27514 z m 23.847,-0.53435 c 1.8058,-1.5466 4.7126,-2.5673 10.455,-3.6715 2.2143,-0.42574 3.4597,-0.49856 9.9443,-0.5814 4.0772,-0.0521 7.5612,-0.0115 7.7424,0.0901 0.18274,0.10254 -3.0688,0.18659 -7.303,0.18876 -7.0184,0.004 -7.8448,0.0443 -10.274,0.50617 -5.651,1.0745 -7.7615,1.7729 -10.235,3.3871 -0.87285,0.56954 -0.91207,0.57914 -0.33017,0.0808 z m -25.573,-1.0064 c 0,-0.78689 0.03995,-1.1088 0.08878,-0.71536 0.04882,0.39345 0.04882,1.0373 0,1.4307 -0.04883,0.39345 -0.08878,0.0715 -0.08878,-0.71537 z m 54.975,0.97216 c 0.0106,-0.25641 0.0627,-0.30857 0.13298,-0.13298 0.0636,0.15889 0.0558,0.34874 -0.0174,0.42188 -0.0731,0.0731 -0.12516,-0.0569 -0.1156,-0.2889 z m -53.021,-1.0822 c 0.0045,-0.36319 0.05382,-0.48511 0.10962,-0.27095 0.05581,0.21416 0.05214,0.51131 -0.0082,0.66033 -0.0603,0.14902 -0.10596,-0.0262 -0.10147,-0.38938 z m 53.224,-0.5206 c 0,-0.73896 -0.14311,-1.2677 -0.46173,-1.7059 l -0.46174,-0.63499 0.57179,0.61758 c 0.45528,0.49173 0.57179,0.83934 0.57179,1.7059 0,0.59856 -0.0495,1.0883 -0.11005,1.0883 -0.0605,0 -0.11006,-0.48189 -0.11006,-1.0709 z m -51.901,-0.4699 c -0.0072,-0.42372 0.06622,-1.2161 0.16315,-1.7609 0.23808,-1.338 0.25684,-0.0811 0.02135,1.4307 -0.14017,0.89993 -0.17381,0.96012 -0.18451,0.33017 z m -1.1034,-0.99051 c 0.0045,-0.36318 0.05382,-0.48511 0.10962,-0.27095 0.05581,0.21417 0.05214,0.51132 -0.0082,0.66034 -0.0603,0.14902 -0.10596,-0.0262 -0.10147,-0.38939 z m -1.9364,-3.852 c 0,-1.7554 0.03418,-2.4735 0.07596,-1.5958 0.04178,0.8777 0.04178,2.3139 0,3.1916 -0.04178,0.8777 -0.07596,0.15958 -0.07596,-1.5958 z m 2.1692,1.6508 c 0.0024,-0.48425 0.04752,-0.65643 0.10017,-0.38263 0.05265,0.2738 0.05065,0.67 -0.0044,0.88045 -0.05509,0.21044 -0.09817,-0.0136 -0.09573,-0.49782 z m 1.1861,-3.0884 c -0.17389,-4.0328 -0.47964,-6.4436 -0.97387,-7.6788 -0.34275,-0.85662 -0.36531,-0.87193 -0.51133,-0.34715 -0.12167,0.43726 -0.15723,0.35596 -0.1747,-0.39946 -0.01244,-0.53774 0.06721,-0.89337 0.18392,-0.82124 0.3768,0.23288 1.0782,2.445 1.3149,4.1474 0.26275,1.8891 0.58845,8.5178 0.41851,8.5178 -0.06053,0 -0.17639,-1.5384 -0.25746,-3.4186 z m -1.1734,-3.0747 c 0.0013,-0.72637 0.04233,-0.99698 0.09132,-0.60136 0.04899,0.39562 0.04798,0.98992 -0.0022,1.3207 -0.05023,0.33075 -0.09031,0.007 -0.08907,-0.71931 z m -2.4265,-0.88044 c 0.0018,-0.60531 0.0444,-0.82681 0.09499,-0.49223 0.0506,0.33459 0.04924,0.82984 -0.003,1.1006 -0.05226,0.27072 -0.09365,-0.003 -0.092,-0.60833 z m 2.1981,-2.3112 c 0,-0.54477 0.04293,-0.76763 0.09539,-0.49525 0.05247,0.27239 0.05247,0.71812 0,0.99051 -0.05246,0.27238 -0.09539,0.0495 -0.09539,-0.49526 z m -2.4152,-0.88044 c 0,-0.66584 0.04126,-0.93823 0.0917,-0.60531 0.05043,0.33292 0.05043,0.8777 0,1.2106 -0.05043,0.33291 -0.0917,0.0605 -0.0917,-0.60531 z m -0.235,-2.8614 c 0,-0.42372 0.0453,-0.59706 0.10066,-0.3852 0.05536,0.21186 0.05536,0.55854 0,0.77039 -0.05536,0.21186 -0.10066,0.0385 -0.10066,-0.38519 z m -0.2538,-1.4491 c 0.01057,-0.25642 0.06272,-0.30858 0.13298,-0.13298 0.06358,0.15889 0.05577,0.34873 -0.01737,0.42188 -0.07314,0.0731 -0.12516,-0.0569 -0.11561,-0.2889 z m -0.23749,-0.75205 c 0,-0.16141 0.06603,-0.22745 0.14674,-0.14674 0.08071,0.0807 0.08071,0.21277 0,0.29348 -0.08071,0.0807 -0.14674,0.0147 -0.14674,-0.14674 z m -0.22011,-0.66033 c 0,-0.16142 0.06603,-0.22745 0.14674,-0.14674 0.08071,0.0807 0.08071,0.21277 0,0.29348 -0.08071,0.0807 -0.14674,0.0147 -0.14674,-0.14674 z"
       fill="#606363"
       id="path8" />
    <path
       d="m 52.433,193.53 c -1.2334,-0.25915 -3.222,-1.609 -3.6826,-2.4997 -0.52826,-1.0215 -0.44911,-2.756 0.17656,-3.8692 0.92675,-1.6489 3.8053,-2.7279 7.1931,-2.6962 3.5062,0.0328 5.611,0.68856 6.1736,1.9234 0.89727,1.9693 -0.7497,4.6374 -3.9166,6.3448 -1.3584,0.73242 -1.8002,0.8576 -3.2656,0.92531 -0.93203,0.0431 -2.1374,-0.0147 -2.6785,-0.12844 z m 5.8927,-1.1937 c 4.3089,-2.2702 5.1458,-6.3391 1.4643,-7.1187 -3.2746,-0.69341 -6.2948,-0.48723 -8.8234,0.60238 -2.7573,1.1881 -3.0497,4.6566 -0.53657,6.3662 1.3956,0.94938 2.124,1.1231 4.4177,1.0536 1.6889,-0.0512 2.0273,-0.13913 3.478,-0.90344 z m -22.374,-5.6236 c -1.2386,-0.89725 -2.0851,-2.1258 -2.9347,-4.2597 -0.65785,-1.6521 -0.71443,-1.9924 -0.72234,-4.3446 -0.0091,-2.7011 0.17208,-3.2808 1.0252,-3.2808 1.1479,0 5.7724,5.8225 6.3655,8.0147 0.36447,1.347 0.12079,3.357 -0.48517,4.002 -0.735,0.78237 -2.0611,0.7287 -3.2485,-0.13147 z m 3.026,-0.13158 c 1.2005,-1.5261 0.79608,-3.638 -1.2951,-6.7639 -1.5363,-2.2964 -3.9768,-4.8748 -4.4632,-4.7154 -0.15015,0.0492 -0.40615,0.47812 -0.56889,0.95311 -0.83031,2.4234 0.69783,7.8749 2.7525,9.8192 1.4457,1.368 2.8381,1.6434 3.5747,0.70695 z m 11.216,-16.61 c -1.0946,-0.25892 -3.0327,-1.4275 -3.759,-2.2665 -0.83262,-0.96179 -1.4926,-2.8043 -1.4924,-4.1663 4.4e-4,-2.2304 1.8161,-4.9674 4.2364,-6.3858 2.7203,-1.5942 7.4317,-1.6558 8.3917,-0.10978 0.31274,0.50365 0.23094,0.5572 -1.6457,1.0772 -2.9595,0.82012 -4.1179,1.7142 -5.3608,4.1376 -0.45296,0.88315 -0.50526,2.8295 -0.11136,4.1442 0.14948,0.49891 0.70416,1.4342 1.2326,2.0784 0.52847,0.64424 0.96085,1.2959 0.96085,1.448 0,0.31744 -1.2027,0.33848 -2.4523,0.0429 z m 2.0121,-0.16795 c 0,-0.0999 -0.43792,-0.74559 -0.97315,-1.4349 -1.613,-2.0772 -1.8692,-4.294 -0.75415,-6.5253 1.0743,-2.1498 1.9999,-2.9071 4.5901,-3.7555 1.2099,-0.39625 2.1997,-0.79996 2.1997,-0.89712 0,-0.30607 -0.75582,-0.5985 -2.2661,-0.87678 -1.1693,-0.21545 -1.7151,-0.21263 -2.734,0.0141 -2.8331,0.63047 -5.3418,2.5099 -6.3814,4.7807 -0.80414,1.7565 -0.88128,2.8781 -0.3041,4.4215 0.96043,2.5682 2.8483,3.8629 6.458,4.429 0.0908,0.0142 0.16508,-0.0558 0.16508,-0.15575 z m 22.892,-7.3429 c 0.95883,-0.81255 6.8849,-3.2889 7.7765,-3.2496 0.14168,0.006 -0.79585,0.38781 -2.0834,0.84791 -2.8687,1.0251 -5.4607,2.2378 -5.0831,2.3782 0.1539,0.0572 0.58964,-0.004 0.96832,-0.13601 1.1729,-0.40888 1.2378,-0.22977 0.07253,0.20021 -0.60531,0.22336 -1.3482,0.41048 -1.6508,0.41584 l -0.55028,0.01 0.55028,-0.46633 z m 3.1916,-0.61958 c 0.24212,-0.10404 0.5888,-0.18917 0.77039,-0.18917 0.20811,0 0.16743,0.0699 -0.11006,0.18917 -0.24212,0.10405 -0.5888,0.18917 -0.77039,0.18917 -0.20811,0 -0.16743,-0.0699 0.11006,-0.18917 z m 1.3895,-0.37047 c 0.15889,-0.0636 0.34874,-0.0558 0.42188,0.0174 0.07314,0.0731 -0.05686,0.12516 -0.2889,0.1156 -0.25642,-0.0106 -0.30857,-0.0627 -0.13298,-0.13298 z m 1.1418,-0.28986 c 0.30265,-0.0969 0.7979,-0.17439 1.1006,-0.17213 0.49428,0.004 0.48308,0.0212 -0.11006,0.17213 -0.36318,0.0924 -0.85844,0.16987 -1.1006,0.17213 -0.34496,0.003 -0.32114,-0.034 0.11006,-0.17213 z m 2.0402,-0.37265 c 0.21416,-0.0558 0.51131,-0.0521 0.66034,0.008 0.14902,0.0603 -0.0262,0.10595 -0.38938,0.10147 -0.36318,-0.004 -0.48511,-0.0538 -0.27095,-0.10963 z m 2.0869,-0.2268 c 0.39345,-0.0488 1.0373,-0.0488 1.4307,0 0.39345,0.0488 0.07154,0.0888 -0.71536,0.0888 -0.7869,0 -1.1088,-0.04 -0.71536,-0.0888 z m 4.017,-0.0749 -1.8709,-0.12407 2.1461,-0.041 c 1.1803,-0.0225 2.1461,-0.002 2.1461,0.0455 0,0.20327 -0.66444,0.23609 -2.4212,0.11958 z m -5.2827,-1.5268 c 0.30265,-0.0969 0.74838,-0.17623 0.9905,-0.17623 0.34858,0 0.32567,0.0367 -0.11006,0.17623 -0.30265,0.0969 -0.74838,0.17623 -0.9905,0.17623 -0.34858,0 -0.32567,-0.0367 0.11006,-0.17623 z m 1.7059,-0.36589 c 0.15133,-0.0611 0.39895,-0.0611 0.55028,0 0.15133,0.0611 0.02751,0.11103 -0.27514,0.11103 -0.30265,0 -0.42647,-0.05 -0.27514,-0.11103 z m 1.1006,-0.22011 c 0.15133,-0.0611 0.39895,-0.0611 0.55028,0 0.15133,0.0611 0.02751,0.11102 -0.27514,0.11102 -0.30265,0 -0.42647,-0.05 -0.27514,-0.11102 z m 1.2148,-0.22687 c 0.21416,-0.0558 0.51131,-0.0521 0.66034,0.008 0.14902,0.0603 -0.0262,0.10595 -0.38938,0.10147 -0.36318,-0.004 -0.48511,-0.0538 -0.27095,-0.10963 z m 1.3165,-0.2193 c 0.21186,-0.0554 0.55853,-0.0554 0.77039,0 0.21186,0.0554 0.03852,0.10066 -0.3852,0.10066 -0.42372,0 -0.59705,-0.0453 -0.3852,-0.10066 z m 1.8709,-0.22373 c 0.27239,-0.0525 0.71811,-0.0525 0.9905,0 0.27239,0.0525 0.04953,0.0954 -0.49525,0.0954 -0.54478,0 -0.76764,-0.0429 -0.49525,-0.0954 z m 2.0952,-0.2173 c 0.21416,-0.0558 0.51131,-0.0521 0.66034,0.008 0.14902,0.0603 -0.0262,0.10596 -0.38938,0.10147 -0.36318,-0.004 -0.48511,-0.0538 -0.27095,-0.10962 z m 1.2202,-0.21794 c 0.15889,-0.0636 0.34874,-0.0558 0.42188,0.0174 0.07314,0.0731 -0.05686,0.12516 -0.2889,0.1156 -0.25642,-0.0106 -0.30857,-0.0627 -0.13298,-0.13298 z m 2.1323,-0.81078 c 2.3719,-1.1814 4.0645,-2.9598 5.6377,-5.9233 0.98316,-1.852 1.1555,-1.8412 0.2191,0.0137 -1.6174,3.2041 -4.3965,5.8527 -6.8473,6.5259 -0.30265,0.0831 0.14307,-0.1942 0.9905,-0.61629 z m -29.605,-3.4231 c 0,-0.43669 1.0935,-3.1296 1.6434,-4.0469 0.57558,-0.96029 0.78037,-0.90008 0.22759,0.0669 -0.69752,1.2202 -0.26344,0.85378 0.80661,-0.68084 1.6499,-2.3662 3.5522,-4.5843 4.8678,-5.6759 l 1.1491,-0.95342 -0.98924,0.95871 c -2.7368,2.6524 -5.4889,6.3636 -6.7311,9.077 -0.53883,1.177 -0.97402,1.7374 -0.97402,1.2545 z m -16.947,-2.8757 c -0.14184,-0.26504 -0.20845,-1.434 -0.16635,-2.9193 l 0.07022,-2.4772 0.04705,2.5932 c 0.03777,2.0814 0.11277,2.6184 0.38002,2.721 0.47348,0.1817 0.98251,-0.31547 1.0177,-0.99395 0.02776,-0.53552 0.03716,-0.54078 0.12695,-0.071 0.10307,0.53924 -0.19962,1.033 -0.84495,1.3784 -0.30303,0.16218 -0.44871,0.10878 -0.63063,-0.23114 z m 53.052,-1.4345 c 0,-0.12106 0.096,-0.36869 0.21336,-0.55028 0.11736,-0.18159 0.21337,-0.23111 0.21337,-0.11005 0,0.12106 -0.096,0.36868 -0.21337,0.55028 -0.11735,0.18159 -0.21336,0.23111 -0.21336,0.11005 z m -51.457,-1.5408 c 0.0024,-0.48425 0.04752,-0.65643 0.10017,-0.38263 0.05265,0.2738 0.05065,0.67 -0.0044,0.88045 -0.05509,0.21044 -0.09817,-0.0136 -0.09573,-0.49782 z m 51.891,0.33017 c 0,-0.16142 0.066,-0.22745 0.14674,-0.14674 0.0807,0.0807 0.0807,0.21277 0,0.29348 -0.0807,0.0807 -0.14674,0.0147 -0.14674,-0.14674 z m 0.22011,-0.66034 c 0,-0.16141 0.066,-0.22745 0.14674,-0.14674 0.0807,0.0807 0.0807,0.21278 0,0.29348 -0.0807,0.0807 -0.14674,0.0147 -0.14674,-0.14674 z m 0.22011,-0.66033 c 0,-0.16142 0.066,-0.22745 0.14674,-0.14674 0.0807,0.0807 0.0807,0.21277 0,0.29348 -0.0807,0.0807 -0.14674,0.0147 -0.14674,-0.14674 z m -52.115,-0.66034 c 0,-0.42371 0.0453,-0.59705 0.10066,-0.38519 0.05536,0.21186 0.05536,0.55853 0,0.77039 -0.05537,0.21186 -0.10066,0.0385 -0.10066,-0.3852 z m 52.335,0 c 0,-0.16141 0.066,-0.22744 0.14674,-0.14674 0.0807,0.0807 0.0807,0.21278 0,0.29348 -0.0807,0.0807 -0.14674,0.0147 -0.14674,-0.14674 z m 0.23749,-0.78873 c 0.0106,-0.25642 0.0627,-0.30857 0.13298,-0.13298 0.0636,0.15889 0.0558,0.34873 -0.0174,0.42188 -0.0731,0.0731 -0.12517,-0.0569 -0.11561,-0.2889 z m -54.319,-1.1923 c 0,-0.66584 0.04126,-0.93823 0.0917,-0.60531 0.05043,0.33292 0.05043,0.8777 0,1.2106 -0.05043,0.33291 -0.0917,0.0605 -0.0917,-0.60531 z m 1.958,0.55028 c 0.0045,-0.36319 0.05382,-0.48512 0.10962,-0.27095 0.05581,0.21416 0.05214,0.51131 -0.0082,0.66033 -0.06029,0.14902 -0.10596,-0.0262 -0.10147,-0.38938 z m 52.564,-0.11006 c 0,-0.16141 0.066,-0.22745 0.14675,-0.14674 0.0807,0.0807 0.0807,0.21278 0,0.29348 -0.0807,0.0807 -0.14675,0.0147 -0.14675,-0.14674 z m 0.23749,-0.78873 c 0.0106,-0.25642 0.0627,-0.30858 0.13299,-0.13299 0.0636,0.1589 0.0558,0.34874 -0.0174,0.42189 -0.0731,0.0731 -0.12516,-0.0569 -0.11561,-0.2889 z m -52.581,-0.42188 c 0.0045,-0.36319 0.05382,-0.48511 0.10962,-0.27095 0.05581,0.21416 0.05214,0.51131 -0.0082,0.66033 -0.0603,0.14902 -0.10596,-0.0262 -0.10147,-0.38938 z m 52.784,-0.33017 c 0,-0.16141 0.066,-0.22745 0.14674,-0.14674 0.0807,0.0807 0.0807,0.21277 0,0.29348 -0.0807,0.0807 -0.14674,0.0147 -0.14674,-0.14674 z m -54.74,-1.4307 c 0.0013,-0.72637 0.04233,-0.99699 0.09132,-0.60137 0.04899,0.39562 0.04798,0.98992 -0.0022,1.3207 -0.05022,0.33075 -0.09031,0.007 -0.08907,-0.7193 z m 2.1758,0.22011 c 0.0045,-0.36319 0.05382,-0.48512 0.10962,-0.27095 0.05581,0.21416 0.05214,0.51131 -0.0082,0.66033 -0.0603,0.14902 -0.10596,-0.0262 -0.10147,-0.38938 z m 23.399,0.33016 c 0.07482,-0.12106 0.18556,-0.22011 0.24609,-0.22011 0.06053,0 0.04884,0.0991 -0.02598,0.22011 -0.07482,0.12107 -0.18556,0.22012 -0.24609,0.22012 -0.06053,0 -0.04884,-0.099 0.02598,-0.22012 z m 29.385,0 c 0,-0.16141 0.066,-0.22744 0.14674,-0.14674 0.0807,0.0807 0.0807,0.21278 0,0.29349 -0.0807,0.0807 -0.14674,0.0147 -0.14674,-0.14675 z m 0.22011,-0.88044 c 0,-0.16142 0.066,-0.22745 0.14674,-0.14674 0.0807,0.0807 0.0807,0.21277 0,0.29348 -0.0807,0.0807 -0.14674,0.0147 -0.14674,-0.14674 z m -52.771,-1.2106 c 0.0024,-0.48424 0.04752,-0.65642 0.10017,-0.38263 0.05265,0.2738 0.05065,0.67 -0.0044,0.88045 -0.05509,0.21045 -0.09817,-0.0136 -0.09573,-0.49782 z m -2.1752,-2.7514 c 0,-1.2712 0.03638,-1.7912 0.08084,-1.1556 0.04446,0.6356 0.04446,1.6756 0,2.3112 -0.04446,0.63558 -0.08084,0.11556 -0.08084,-1.1556 z m 2.3953,0.77039 c 0.0024,-0.48425 0.04752,-0.65643 0.10017,-0.38263 0.05265,0.2738 0.05065,0.67 -0.0044,0.88045 -0.05509,0.21044 -0.09817,-0.0136 -0.09573,-0.49782 z m 0.2537,-4.6223 c 2.2e-4,-1.937 0.03395,-2.6999 0.07483,-1.6954 0.04088,1.0045 0.04065,2.5893 -4.4e-4,3.5218 -0.04116,0.93248 -0.0746,0.11061 -0.07432,-1.8264 z m -2.6523,-1.1006 c -6.6e-4,-1.0896 0.03655,-1.563 0.08271,-1.0522 0.04616,0.51085 0.04671,1.4023 0.0013,1.981 -0.04559,0.57869 -0.08336,0.16072 -0.08403,-0.92883 z m -0.23228,-3.852 c 0,-0.66583 0.04126,-0.93822 0.0917,-0.6053 0.05043,0.33292 0.05043,0.87769 0,1.2106 -0.05043,0.33291 -0.0917,0.0605 -0.0917,-0.60531 z m 2.6413,-0.44022 c 0,-0.66584 0.04126,-0.93822 0.0917,-0.60531 0.05043,0.33292 0.05043,0.8777 0,1.2106 -0.05043,0.3329 -0.0917,0.0605 -0.0917,-0.60531 z m -2.8615,-2.8614 c 0,-0.66584 0.04126,-0.93823 0.0917,-0.60531 0.05043,0.33292 0.05043,0.8777 0,1.2106 -0.05043,0.3329 -0.0917,0.0605 -0.0917,-0.60531 z m 2.6264,0.44022 c 0,-0.42371 0.0453,-0.59705 0.10066,-0.38519 0.05536,0.21186 0.05536,0.55853 0,0.77039 -0.05537,0.21186 -0.10066,0.0385 -0.10066,-0.3852 z m -2.8696,-2.7514 c 0.0045,-0.36319 0.05382,-0.48511 0.10962,-0.27095 0.05581,0.21416 0.05214,0.51131 -0.0082,0.66033 -0.06029,0.14903 -0.10594,-0.0262 -0.10146,-0.38938 z m -0.24564,-1.1189 c 0.01056,-0.25642 0.06272,-0.30858 0.13298,-0.13299 0.06358,0.1589 0.05577,0.34874 -0.01737,0.42188 -0.07314,0.0731 -0.12516,-0.0569 -0.11561,-0.28889 z m -0.23749,-0.75205 c 0,-0.16142 0.06603,-0.22745 0.14674,-0.14674 0.08071,0.0807 0.08071,0.21277 0,0.29348 -0.08071,0.0807 -0.14674,0.0147 -0.14674,-0.14674 z m -0.60992,-1.2264 c -0.27207,-0.41506 -0.45099,-0.75464 -0.39759,-0.75464 0.15308,0 1.0649,1.3366 0.9739,1.4276 -0.0449,0.0449 -0.30424,-0.25796 -0.57631,-0.67301 z"
       fill="#1c5d5d"
       id="path10" />
    <path
       d="m 47.584,206.63 c -0.18159,-0.0368 -1.1034,-0.18887 -2.0485,-0.33791 -2.1644,-0.34131 -3.013,-0.8877 -5.6297,-3.6248 -3.2209,-3.3692 -4.2871,-5.2342 -6.0348,-10.557 -2.6036,-7.929 -3.4975,-16.127 -2.3712,-21.747 1.2523,-6.2486 4.222,-11.965 8.4196,-16.208 l 1.7692,-1.7884 -1.7297,-1.8094 c -3.323,-3.4762 -5.8545,-8.0078 -6.9127,-12.374 -1.0171,-4.1969 -0.17603,-10.256 1.8802,-13.545 0.94199,-1.5067 3.354,-4.5659 4.8342,-6.1315 1.8122,-1.9168 2.8775,-2.6653 3.7931,-2.6653 1.2764,0 3.6001,1.4026 4.5202,2.7285 0.34993,0.50426 0.15626,0.38689 -0.73942,-0.44807 -1.4672,-1.3677 -2.7588,-2.0603 -3.8422,-2.0603 -0.7182,0 -1.0255,0.21299 -2.7789,1.926 -2.9643,2.896 -5.9435,6.9569 -6.7608,9.2156 -1.1636,3.2158 -1.4493,7.8163 -0.68376,11.009 1.0518,4.3872 4.2616,9.887 7.6842,13.167 0.49941,0.47855 0.90802,0.92776 0.90802,0.99823 0,0.0705 -0.89871,1.0656 -1.9971,2.2115 -5.6031,5.8449 -8.623,13.323 -8.6189,21.343 0.0033,6.3604 2.1331,15.763 4.8177,21.268 1.2053,2.4718 3.9571,5.6203 7.0734,8.0932 1.9498,1.5472 11.274,1.6015 17.322,0.10085 3.1285,-0.77636 5.0449,-1.5175 8.3447,-3.2271 7.0981,-3.6776 11.926,-7.9352 15.874,-13.999 4.041,-6.2069 5.3861,-11.483 4.3885,-17.215 -0.41615,-2.3911 -1.5656,-5.8917 -2.6259,-7.9972 -0.43476,-0.86332 -0.73179,-1.6646 -0.66007,-1.7807 0.07602,-0.12301 -0.35691,-0.22554 -1.0382,-0.24587 -0.88813,-0.0265 -0.69316,-0.0737 0.81243,-0.1968 2.8137,-0.23 5.3903,-0.22384 4.8425,0.0116 -0.24212,0.10404 -1.2376,0.19613 -2.2121,0.20464 -1.0133,0.009 -1.8795,0.12303 -2.0231,0.2667 -0.18823,0.18823 -0.05809,0.63474 0.51899,1.7807 1.6837,3.3433 2.9459,8.2542 2.9459,11.462 0,4.7881 -1.9975,10.067 -5.8685,15.508 -3.5459,4.9846 -8.7634,9.2984 -15.152,12.528 -4.7266,2.3891 -7.9437,3.3879 -12.656,3.9293 -2.4031,0.27607 -7.4115,0.39982 -8.3642,0.20667 z m -2.7072,-5.0761 c -0.65653,-0.35596 -0.65828,-0.47605 -0.02937,-2.0138 0.25111,-0.614 0.68853,-0.90859 3.1049,-2.0911 2.4473,-1.1976 2.8971,-1.5027 3.4629,-2.3492 0.63192,-0.94539 0.63828,-0.98127 0.22543,-1.2717 -3.4166,-2.4032 -3.6165,-2.6573 -3.6165,-4.5975 0,-1.9409 1.0289,-3.2859 3.1085,-4.0636 0.71156,-0.2661 1.2906,-0.54603 1.2867,-0.62207 -0.0039,-0.076 -0.15243,-0.33052 -0.33017,-0.56551 -0.36021,-0.47624 -0.43768,-1.4437 -0.1156,-1.4437 0.39559,0 2.7663,-2.3719 3.2733,-3.2749 0.5783,-1.0301 0.3766,-1.1887 -0.41594,-0.32713 -1.3406,1.4574 -3.0649,2.3025 -3.0649,1.5022 0,-0.57338 0.85871,-2.0587 1.3785,-2.3844 0.56957,-0.35691 3.6712,-0.66468 6.1983,-0.61503 2.8496,0.056 4.3899,1.0846 5.0742,3.3888 0.59954,2.0189 0.29264,5.8857 -0.65483,8.2507 -0.3297,0.82294 -1.9827,2.4866 -3.616,3.6392 -0.21509,0.15178 -0.67752,0.86208 -1.0276,1.5784 -0.77891,1.5937 -1.4987,2.338 -2.8815,2.9795 -0.58263,0.27029 -1.3565,0.76663 -1.7197,1.103 -0.93612,0.86696 -4.8852,3.0709 -5.9386,3.3144 -1.3156,0.30399 -3.0045,0.24173 -3.702,-0.13646 z m 13.5,-8.8164 c 3.9401,-2.1244 5.4457,-5.8229 2.9811,-7.3234 -1.5713,-0.95662 -6.2277,-1.2715 -8.5922,-0.58109 -3.161,0.92304 -4.3645,2.1355 -4.3645,4.3972 0,1.5061 0.46142,2.3164 1.8726,3.2883 1.4114,0.97204 2.5806,1.2486 4.8374,1.1444 1.4654,-0.0677 1.9071,-0.19289 3.2656,-0.92531 z m -20.863,-5.2909 c 0.21186,-0.0554 0.55853,-0.0554 0.77039,0 0.21186,0.0554 0.03852,0.10066 -0.3852,0.10066 -0.42371,0 -0.59705,-0.0453 -0.3852,-0.10066 z m 1.5958,-0.5086 c 0.21912,-0.24213 0.44792,-0.44023 0.50845,-0.44023 0.06053,0 -0.06922,0.1981 -0.28834,0.44023 -0.21912,0.24212 -0.44792,0.44022 -0.50845,0.44022 -0.06053,0 0.06922,-0.1981 0.28834,-0.44022 z m -3.1026,-0.034 c -0.09731,-0.15745 -0.06038,-0.19438 0.09707,-0.0971 0.13977,0.0864 0.25412,0.20074 0.25412,0.25412 0,0.18361 -0.19437,0.0967 -0.35119,-0.15705 z m -1.0934,-0.90147 -0.64649,-0.71536 0.71536,0.64649 c 0.39345,0.35556 0.71536,0.67748 0.71536,0.71536 0,0.17005 -0.18162,0.0203 -0.78424,-0.64649 z m 4.7636,-0.0734 c 0.01056,-0.25642 0.06272,-0.30857 0.13298,-0.13298 0.06358,0.15889 0.05576,0.34874 -0.01738,0.42188 -0.07314,0.0731 -0.12516,-0.0569 -0.11561,-0.2889 z m 0.26268,-1.4124 c 0,-0.54478 0.04293,-0.76764 0.09539,-0.49525 0.05246,0.27238 0.05246,0.71811 0,0.9905 -0.05246,0.27239 -0.09539,0.0495 -0.09539,-0.49525 z m -5.9139,0.40621 c -0.09731,-0.15744 -0.06038,-0.19437 0.09707,-0.0971 0.13977,0.0864 0.25412,0.20073 0.25412,0.25412 0,0.1836 -0.19437,0.0967 -0.35119,-0.15706 z m -0.53935,-0.86529 c -0.13513,-0.25249 -0.20423,-0.50053 -0.15356,-0.55121 0.05067,-0.0507 0.20515,0.15591 0.34328,0.45908 0.30333,0.66573 0.15564,0.73746 -0.18973,0.0921 z m -0.43013,-1.0817 c 0,-0.16142 0.06603,-0.22745 0.14674,-0.14675 0.08071,0.0807 0.08071,0.21278 0,0.29349 -0.08071,0.0807 -0.14674,0.0147 -0.14674,-0.14674 z m 6.6033,0 c 0,-0.16142 0.06603,-0.22745 0.14674,-0.14675 0.08071,0.0807 0.08071,0.21278 0,0.29349 -0.08071,0.0807 -0.14674,0.0147 -0.14674,-0.14674 z m -7.0436,-1.1006 c 0,-0.16142 0.06603,-0.22745 0.14674,-0.14674 0.08071,0.0807 0.08071,0.21277 0,0.29348 -0.08071,0.0807 -0.14674,0.0147 -0.14674,-0.14674 z m -0.22011,-0.66034 c 0,-0.16141 0.06603,-0.22744 0.14674,-0.14674 0.08071,0.0807 0.08071,0.21278 0,0.29349 -0.08071,0.0807 -0.14674,0.0147 -0.14674,-0.14675 z m 6.3832,-0.22011 c -0.12958,-0.24212 -0.18608,-0.44022 -0.12554,-0.44022 0.06053,0 0.21608,0.1981 0.34566,0.44022 0.12958,0.24212 0.18608,0.44023 0.12554,0.44023 -0.06053,0 -0.21608,-0.19811 -0.34566,-0.44023 z m 30.595,-0.66462 c -1.5757,-0.94001 -2.3269,-2.8994 -2.1526,-5.615 0.12152,-1.8935 0.79804,-3.2217 2.2281,-4.3744 0.78482,-0.63257 0.97055,-0.68177 2.5741,-0.68177 1.6737,0 1.7531,0.0241 2.5151,0.76267 0.96506,0.93537 1.309,2.1018 1.1449,3.8827 -0.40458,4.39 -3.7292,7.5651 -6.3095,6.0258 z m -37.181,-0.12409 c 0.01056,-0.25642 0.06272,-0.30857 0.13298,-0.13299 0.06358,0.1589 0.05576,0.34875 -0.01738,0.42189 -0.07314,0.0731 -0.12516,-0.0569 -0.11561,-0.2889 z m 6.0147,-0.12572 c -0.09731,-0.15745 -0.06038,-0.19438 0.09707,-0.0971 0.25373,0.15682 0.34066,0.35119 0.15706,0.35119 -0.05339,0 -0.16774,-0.11436 -0.25412,-0.25412 z m -0.44022,-0.66034 c -0.09731,-0.15744 -0.06038,-0.19437 0.09707,-0.0971 0.25373,0.15681 0.34066,0.35118 0.15706,0.35118 -0.05339,0 -0.16774,-0.11435 -0.25412,-0.25412 z m -5.7415,-1.5068 c 0,-0.7869 0.03995,-1.1088 0.08878,-0.71536 0.04883,0.39344 0.04883,1.0373 0,1.4307 -0.04883,0.3934 -0.08878,0.0715 -0.08878,-0.71536 z m 5.3013,0.84644 c -0.09731,-0.15745 -0.06038,-0.19438 0.09707,-0.0971 0.25373,0.15682 0.34066,0.35119 0.15706,0.35119 -0.05339,0 -0.16774,-0.11436 -0.25412,-0.25412 z m -0.55734,-0.79141 c -0.27379,-0.34911 -0.266,-0.3569 0.0831,-0.0831 0.21186,0.16615 0.3852,0.33949 0.3852,0.3852 0,0.18116 -0.18075,0.0646 -0.4683,-0.30209 z m 3.9107,-0.20775 c -0.28956,-0.28956 -0.14876,-2.4384 0.16772,-2.5599 0.40431,-0.15515 0.59776,0.60269 0.42679,1.672 -0.13438,0.84045 -0.33795,1.1445 -0.59451,0.88793 z m -5.431,-1.5532 -1.2031,-1.2656 1.2656,1.2031 c 1.1758,1.1177 1.3665,1.3282 1.2031,1.3282 -0.0344,0 -0.60394,-0.56954 -1.2656,-1.2656 z m -3.0567,-0.40353 c 0.01056,-0.25642 0.06272,-0.30858 0.13298,-0.13299 0.06358,0.15889 0.05576,0.34874 -0.01738,0.42188 -0.07314,0.0731 -0.12516,-0.0569 -0.11561,-0.28889 z m 0.46118,-0.88472 c 0.19726,-0.19726 0.46419,-0.32239 0.59319,-0.27807 0.12899,0.0443 -0.0324,0.2057 -0.35865,0.35864 -0.54821,0.257 -0.566,0.25089 -0.23454,-0.0806 z m 19.387,-4.6473 c 0.65015,-0.0985 0.7723,-0.44748 0.33017,-0.94329 -0.23407,-0.26249 -0.21764,-0.26504 0.11006,-0.0171 0.21186,0.16031 0.3852,0.47745 0.3852,0.70474 0,0.32628 -0.15058,0.40633 -0.71536,0.3803 -0.66582,-0.0307 -0.67344,-0.0393 -0.11006,-0.12468 z m -1.6371,-0.21282 c 0.15889,-0.0636 0.34874,-0.0558 0.42188,0.0174 0.07314,0.0731 -0.05686,0.12516 -0.2889,0.11561 -0.25642,-0.0106 -0.30857,-0.0627 -0.13298,-0.13299 z m -0.98592,-0.21649 c 0.08071,-0.0807 0.21278,-0.0807 0.29348,0 0.08071,0.0807 0.01467,0.14674 -0.14674,0.14674 -0.16142,0 -0.22745,-0.066 -0.14674,-0.14674 z m -0.64467,-0.32749 c -0.09731,-0.15745 -0.06038,-0.19437 0.09706,-0.0971 0.25373,0.15682 0.34066,0.35119 0.15706,0.35119 -0.05339,0 -0.16774,-0.11435 -0.25412,-0.25412 z m -1.5408,-0.88045 c -0.09731,-0.15744 -0.06038,-0.19437 0.09707,-0.0971 0.25373,0.15681 0.34066,0.35118 0.15706,0.35118 -0.05339,0 -0.16774,-0.11435 -0.25412,-0.25412 z m 4.2965,-0.35118 -0.53362,-0.60531 0.60531,0.53362 c 0.56575,0.49875 0.70625,0.67699 0.53362,0.67699 -0.03943,0 -0.31182,-0.27238 -0.60531,-0.6053 z m -5.397,-0.77039 -0.41931,-0.49526 0.49525,0.41932 c 0.46541,0.39404 0.59545,0.57119 0.41931,0.57119 -0.04177,0 -0.26463,-0.22287 -0.49525,-0.49525 z m 4.6342,-0.17973 c -0.0798,-0.12912 -0.09788,-0.28196 -0.04018,-0.33966 0.0577,-0.0577 0.16356,0.0479 0.23524,0.23475 0.14884,0.38786 0.02199,0.45609 -0.19506,0.10491 z m -0.32112,-0.8658 c 0,-0.16142 0.06603,-0.22745 0.14674,-0.14675 0.08071,0.0807 0.08071,0.21278 0,0.29349 -0.08071,0.0807 -0.14674,0.0147 -0.14674,-0.14674 z m -5.2827,-0.66034 c 0,-0.16141 0.06603,-0.22745 0.14674,-0.14674 0.08071,0.0807 0.08071,0.21277 0,0.29348 -0.08071,0.0807 -0.14674,0.0147 -0.14674,-0.14674 z m 5.0799,-0.1284 c 0.01057,-0.25642 0.06272,-0.30857 0.13298,-0.13298 0.06358,0.15889 0.05577,0.34874 -0.01737,0.42188 -0.07314,0.0731 -0.12516,-0.0569 -0.11561,-0.2889 z m -5.3829,-0.6505 c -0.07549,-0.19671 -0.12269,-0.82005 -0.10489,-1.3852 0.03167,-1.0055 0.03557,-0.99926 0.18208,0.29314 0.1599,1.4105 0.14203,1.6633 -0.0772,1.092 z m 5.1454,-0.76188 c 0,-0.16141 0.06603,-0.22745 0.14674,-0.14674 0.08071,0.0807 0.08071,0.21277 0,0.29348 -0.08071,0.0807 -0.14674,0.0147 -0.14674,-0.14674 z m 0.23749,-1.229 c 0.01057,-0.25641 0.06272,-0.30857 0.13298,-0.13298 0.06358,0.15889 0.05577,0.34874 -0.01737,0.42188 -0.07314,0.0731 -0.12516,-0.0569 -0.11561,-0.2889 z m 24.195,-0.19099 c 0,-0.29416 2.5383,-1.8868 2.9927,-1.8777 0.10943,0.002 -0.34582,0.3037 -1.0117,0.67002 -0.66584,0.36631 -1.3592,0.82266 -1.5408,1.0141 -0.29898,0.31521 -0.24701,0.33568 0.55028,0.21667 0.60109,-0.0897 0.77569,-0.0646 0.55028,0.0791 -0.52106,0.3322 -1.5408,0.2646 -1.5408,-0.10215 z m 2.0544,-0.26757 c 0.08071,-0.0807 0.21278,-0.0807 0.29348,0 0.08071,0.0807 0.01467,0.14674 -0.14674,0.14674 -0.16142,0 -0.22745,-0.066 -0.14674,-0.14674 z m 0.91713,-0.29348 c 0.24212,-0.10405 0.5888,-0.18918 0.77039,-0.18918 0.20811,0 0.16743,0.0699 -0.11006,0.18918 -0.24212,0.10404 -0.5888,0.18917 -0.77039,0.18917 -0.20811,0 -0.16742,-0.0699 0.11006,-0.18917 z m -32.466,-0.22012 c 0,-0.16141 0.06603,-0.22744 0.14674,-0.14674 0.08071,0.0807 0.08071,0.21278 0,0.29349 -0.08071,0.0807 -0.14674,0.0147 -0.14674,-0.14675 z m 34.447,-0.33633 c 0.48424,-0.15959 1.0785,-0.28892 1.3207,-0.2874 0.24212,0.002 -0.05503,0.14057 -0.66033,0.309 -1.3771,0.3832 -1.8424,0.36798 -0.66034,-0.0216 z m -34.227,-0.18819 c 0,-0.23622 0.65492,-1.4565 0.7817,-1.4565 0.06053,0 -0.05366,0.32191 -0.25376,0.71536 -0.40858,0.80339 -0.52794,0.97094 -0.52794,0.74112 z m 5.833,-0.13581 c 0.07482,-0.12106 0.18556,-0.22011 0.24609,-0.22011 0.06053,0 0.04884,0.0991 -0.02598,0.22011 -0.07482,0.12106 -0.18556,0.22011 -0.24609,0.22011 -0.06053,0 -0.04884,-0.0991 0.02598,-0.22011 z m 30.43,-0.14578 c 0.15133,-0.0611 0.39895,-0.0611 0.55028,0 0.15133,0.0611 0.02751,0.11103 -0.27514,0.11103 -0.30265,0 -0.42647,-0.05 -0.27514,-0.11103 z m 1.2148,-0.22687 c 0.21416,-0.0558 0.51131,-0.0521 0.66034,0.008 0.14902,0.0603 -0.0262,0.10595 -0.38938,0.10147 -0.36318,-0.004 -0.48511,-0.0538 -0.27095,-0.10963 z m -31.205,-0.28769 c 0.07482,-0.12106 0.18556,-0.22011 0.24609,-0.22011 0.06053,0 0.04884,0.0991 -0.02598,0.22011 -0.07482,0.12107 -0.18556,0.22012 -0.24609,0.22012 -0.06053,0 -0.04884,-0.099 0.02598,-0.22012 z m 26.523,0 c 0.18159,-0.11735 0.42922,-0.21337 0.55028,-0.21337 0.12106,0 0.07154,0.096 -0.11006,0.21337 -0.18159,0.11736 -0.42922,0.21337 -0.55028,0.21337 -0.12106,0 -0.07154,-0.096 0.11006,-0.21337 z m 1.1006,-0.44022 c 0.18159,-0.11735 0.42922,-0.21337 0.55028,-0.21337 0.12106,0 0.07154,0.096 -0.11006,0.21337 -0.18159,0.11736 -0.42922,0.21337 -0.55028,0.21337 -0.12106,0 -0.07154,-0.096 0.11006,-0.21337 z m -27.294,-0.0831 c 0,-0.0457 0.17334,-0.21905 0.3852,-0.3852 0.34911,-0.27379 0.3569,-0.266 0.0831,0.0831 -0.28755,0.36665 -0.4683,0.48325 -0.4683,0.30209 z m 21.769,-0.38174 c -1.1933,-0.43806 -1.461,-2.2687 -0.40537,-2.7721 0.42725,-0.20376 0.93263,-0.2121 2.0911,-0.0345 2.2077,0.33845 2.8354,1.0709 1.8367,2.1429 -0.81603,0.87591 -2.2224,1.1409 -3.5224,0.66374 z m 6.4783,0.098 c 0.08071,-0.0807 0.21278,-0.0807 0.29348,0 0.08071,0.0807 0.01467,0.14674 -0.14674,0.14674 -0.16141,0 -0.22745,-0.066 -0.14674,-0.14674 z m -33.971,-0.15648 c 0,-0.0457 0.17334,-0.21904 0.3852,-0.38519 0.34911,-0.27379 0.3569,-0.26601 0.08311,0.0831 -0.28755,0.36665 -0.4683,0.48325 -0.4683,0.30209 z m 34.631,-0.0636 c 0.08071,-0.0807 0.21278,-0.0807 0.29348,0 0.08071,0.0807 0.01467,0.14674 -0.14674,0.14674 -0.16141,0 -0.22745,-0.066 -0.14674,-0.14674 z m -27.917,-0.29349 c 0.07482,-0.12106 0.18556,-0.22011 0.24609,-0.22011 0.06053,0 0.04884,0.0991 -0.02598,0.22011 -0.07482,0.12107 -0.18556,0.22012 -0.24609,0.22012 -0.06053,0 -0.04884,-0.0991 0.02598,-0.22012 z m 28.725,0 c 0.18159,-0.11735 0.47874,-0.20792 0.66034,-0.20127 0.2177,0.008 0.18021,0.0765 -0.11006,0.20127 -0.60511,0.26003 -0.95264,0.26003 -0.55028,0 z m 1.1393,-0.33217 c 0.164,-0.164 3.957,-0.98153 4.4736,-0.96422 0.24212,0.008 -0.5998,0.24706 -1.8709,0.53101 -2.4989,0.5582 -2.7733,0.60387 -2.6026,0.43321 z m -35.917,-0.19115 c 0,-0.0457 0.17334,-0.21905 0.3852,-0.3852 0.34911,-0.27379 0.3569,-0.266 0.0831,0.0831 -0.28755,0.36665 -0.4683,0.48325 -0.4683,0.30209 z m 7.2637,-0.13701 c 0.18159,-0.11736 0.42922,-0.21337 0.55028,-0.21337 0.12106,0 0.07154,0.096 -0.11006,0.21337 -0.18159,0.11735 -0.42922,0.21337 -0.55028,0.21337 -0.12106,0 -0.07154,-0.096 0.11006,-0.21337 z m 0.95382,-0.36685 c 0.08071,-0.0807 0.21278,-0.0807 0.29348,0 0.08071,0.0807 0.01467,0.14674 -0.14674,0.14674 -0.16142,0 -0.22745,-0.066 -0.14674,-0.14674 z m -7.0069,-0.5136 c 0.21912,-0.24212 0.44792,-0.44022 0.50845,-0.44022 0.06053,0 -0.06922,0.1981 -0.28834,0.44022 -0.21912,0.24213 -0.44792,0.44023 -0.50845,0.44023 -0.06053,0 0.06922,-0.1981 0.28834,-0.44023 z m 7.6672,0.29348 c 0.08071,-0.0807 0.21278,-0.0807 0.29348,0 0.08071,0.0807 0.01467,0.14675 -0.14674,0.14675 -0.16142,0 -0.22745,-0.066 -0.14674,-0.14675 z m 0.98592,-0.22373 c 0.15889,-0.0636 0.34874,-0.0558 0.42188,0.0174 0.07314,0.0731 -0.05686,0.12517 -0.2889,0.11561 -0.25642,-0.0106 -0.30857,-0.0627 -0.13298,-0.13298 z m 31.356,-0.002 c 0.21416,-0.0558 0.51131,-0.0521 0.66034,0.008 0.14902,0.0603 -0.0262,0.10595 -0.38938,0.10147 -0.36318,-0.004 -0.48511,-0.0538 -0.27095,-0.10963 z m -30.581,-0.21456 c 0.08071,-0.0807 0.21278,-0.0807 0.29348,0 0.08071,0.0807 0.01467,0.14677 -0.14674,0.14677 -0.16142,0 -0.22745,-0.066 -0.14674,-0.14674 z m 32.01,-0.009 c 0.2738,-0.0526 0.67,-0.0506 0.88045,0.004 0.21045,0.0551 -0.01358,0.0982 -0.49782,0.0957 -0.48424,-0.002 -0.65643,-0.0475 -0.38263,-0.10017 z m 1.9784,-0.21978 c 0.27239,-0.0525 0.71811,-0.0525 0.9905,0 0.27239,0.0525 0.04953,0.0954 -0.49525,0.0954 -0.54478,0 -0.76764,-0.0429 -0.49525,-0.0954 z m -42.647,-0.15931 c 0,-0.0605 0.1981,-0.21607 0.44022,-0.34565 0.24212,-0.12958 0.44022,-0.18608 0.44022,-0.12555 0,0.0605 -0.1981,0.21608 -0.44022,0.34566 -0.24212,0.12958 -0.44022,0.18607 -0.44022,0.12554 z m 8.7177,-0.53229 -0.4169,-0.58375 0.51473,0.48913 c 0.2831,0.26903 0.47071,0.53172 0.4169,0.58375 -0.0538,0.052 -0.28543,-0.16807 -0.51473,-0.48913 z m 36.625,0.29683 c 0.66584,-0.16093 1.2447,-0.25877 1.2863,-0.21744 0.11722,0.11643 -1.5622,0.54717 -2.0567,0.52752 -0.24212,-0.01 0.10455,-0.14916 0.77039,-0.31008 z m -12.543,-0.59914 c -0.84784,-0.45104 -1.0364,-1.2817 -0.51785,-2.281 0.59742,-1.1512 1.2814,-1.6005 2.8265,-1.8565 1.6267,-0.26957 3.0088,-0.0878 3.6132,0.47528 0.62628,0.58347 0.6065,1.7336 -0.04028,2.3412 -1.2814,1.2038 -4.6709,1.9651 -5.8816,1.3211 z m 15.257,-0.4394 c 1.764,-0.95695 3.8505,-3.2661 5.0269,-5.5635 0.5194,-1.0143 0.97998,-1.8086 1.0235,-1.7651 0.0435,0.0435 -0.32469,0.85436 -0.81829,1.8018 -1.4228,2.7311 -3.29,4.7605 -5.3517,5.8166 -1.3562,0.69474 -1.2584,0.45763 0.1196,-0.2899 z m -46.444,0.34138 c 0.08071,-0.0807 0.21278,-0.0807 0.29348,0 0.08071,0.0807 0.01467,0.14674 -0.14674,0.14674 -0.16141,0 -0.22745,-0.066 -0.14674,-0.14674 z m 0.66034,-0.22011 c 0.08071,-0.0807 0.21278,-0.0807 0.29348,0 0.08071,0.0807 0.01467,0.14674 -0.14674,0.14674 -0.16142,0 -0.22745,-0.066 -0.14674,-0.14674 z m 5.5028,0 c 0.08071,-0.0807 0.21278,-0.0807 0.29348,0 0.08071,0.0807 0.01467,0.14674 -0.14674,0.14674 -0.16141,0 -0.22745,-0.066 -0.14674,-0.14674 z m -4.737,-0.22373 c 0.15889,-0.0636 0.34874,-0.0558 0.42188,0.0174 0.07314,0.0731 -0.05686,0.12516 -0.2889,0.1156 -0.25642,-0.0106 -0.30858,-0.0627 -0.13298,-0.13298 z m 3.7419,0 c 0.15889,-0.0636 0.34874,-0.0558 0.42188,0.0174 0.07314,0.0731 -0.05686,0.12516 -0.2889,0.1156 -0.25642,-0.0106 -0.30857,-0.0627 -0.13298,-0.13298 z m -2.3249,-0.22741 c 0.33292,-0.0504 0.8777,-0.0504 1.2106,0 0.3329,0.0504 0.06053,0.0917 -0.60531,0.0917 -0.66584,0 -0.93823,-0.0413 -0.60531,-0.0917 z m 13.278,-2.0176 c -0.12365,-0.20008 0.55136,-2.3556 0.95453,-3.0481 0.3468,-0.59568 0.2839,-0.28511 -0.20021,0.9886 -0.87919,2.3132 -0.44861,2.0944 0.83668,-0.42506 0.51442,-1.0084 1.1393,-2.0811 1.3885,-2.3837 0.30035,-0.36469 0.2551,-0.21622 -0.13415,0.44022 -0.32304,0.54478 -0.97435,1.8077 -1.4474,2.8064 -0.81279,1.7162 -1.1196,2.0721 -1.398,1.6216 z m -19.728,-2.8993 c -0.33954,-0.33954 -0.43556,-0.67691 -0.3852,-1.3533 0.08599,-1.1548 0.56965,-1.5021 1.3655,-0.98064 0.47437,0.31083 0.57251,0.54271 0.57251,1.3528 0,0.74133 -0.10292,1.0328 -0.42575,1.2055 -0.56927,0.30466 -0.60514,0.29752 -1.1271,-0.22443 z m 2.7921,-0.7033 c -0.073,-0.27239 -0.13408,-0.81574 -0.13573,-1.2075 -0.0018,-0.39171 -0.12331,-1.162 -0.27035,-1.7118 -0.22465,-0.83994 -0.20756,-1.2359 0.10698,-2.4794 0.32099,-1.269 0.52827,-2.9898 0.89414,-7.4229 0.05781,-0.70039 0.08005,-0.63287 0.10877,0.33017 0.01985,0.66583 -0.1109,2.7954 -0.29056,4.7324 -0.38304,4.1297 -0.42424,7.2301 -0.10402,7.8284 0.12846,0.24003 0.13966,0.42575 0.02567,0.42575 -0.1112,0 -0.26191,-0.22286 -0.33491,-0.49525 z m 1.25,0.0488 c 0.41218,-0.32422 0.5906,-0.70093 0.65156,-1.3757 l 0.08395,-0.92922 0.03845,1.0202 c 0.03257,0.86411 -0.04456,1.0746 -0.50408,1.3757 -0.76707,0.5026 -0.94728,0.44183 -0.26989,-0.091 z m 16.881,-0.20085 c 0,-0.11392 0.09792,-0.26764 0.21759,-0.3416 0.12477,-0.0771 0.16167,0.0112 0.08651,0.20712 -0.14633,0.38132 -0.3041,0.45109 -0.3041,0.13448 z m 0.763,-1.3194 c 0.39725,-0.76819 0.5026,-0.71376 -2.5731,-1.3294 -1.123,-0.22479 -1.8296,-0.41705 -1.5702,-0.42725 0.63058,-0.0248 3.8302,0.6387 4.317,0.89522 0.35524,0.18719 0.35923,0.25636 0.04937,0.85555 -0.18541,0.35854 -0.38664,0.6519 -0.44716,0.6519 -0.06052,0 0.04028,-0.29072 0.22403,-0.64605 z m 34.558,-0.63815 c 0.43068,-1.3995 1.1864,-3.4206 1.2008,-3.2116 0.0211,0.30462 -1.0382,3.4256 -1.2206,3.5961 -0.0761,0.0711 -0.0672,-0.10185 0.0198,-0.38445 z m -32.496,-0.75183 c 1.3044,-1.8919 3.7632,-4.4204 5.8695,-6.0357 1.9782,-1.5171 4.3448,-2.3151 10.125,-3.4143 2.4303,-0.46212 3.2539,-0.50255 10.309,-0.50617 l 7.6676,-0.004 0.53159,0.61758 c 0.34245,0.39784 0.53159,0.8908 0.53159,1.3855 0,0.82716 -0.65694,3.6865 -0.81148,3.532 -0.0515,-0.0515 0.0605,-0.68843 0.24887,-1.4154 0.63462,-2.4491 0.33036,-3.5632 -1.069,-3.9144 -0.29826,-0.0749 -3.7923,-0.0929 -7.7645,-0.0401 -6.2778,0.0834 -7.5533,0.15954 -9.7535,0.5821 -3.6241,0.69599 -6.7464,1.516 -7.7913,2.0463 -2.3153,1.175 -5.525,4.024 -7.4501,6.6128 -1.2278,1.6512 -1.6509,2.0154 -0.6431,0.55365 z m -18.888,0.16508 c -0.004,-1.1938 0.29241,-2.7631 0.47055,-2.4917 0.11515,0.17542 0.14728,-0.10197 0.08106,-0.69992 -0.07392,-0.66753 -0.05283,-0.81107 0.06469,-0.44022 0.13676,0.43158 0.27702,0.004 0.65025,-1.981 1.0064,-5.3532 1.1243,-8.2793 0.5411,-13.427 l -0.1621,-1.4307 -0.13779,1.2106 c -0.13184,1.1583 -0.13548,1.1464 -0.08442,-0.27514 0.02936,-0.81717 -0.03245,-1.4858 -0.13735,-1.4858 -0.1049,0 -0.18685,-0.37144 -0.18211,-0.82542 l 0.0086,-0.82541 0.3093,0.71149 c 0.41424,0.9529 0.718,3.2834 0.89702,6.8824 0.16699,3.3569 -0.15402,6.4012 -1.2069,11.446 -0.34111,1.6343 -0.57002,3.1027 -0.5087,3.263 0.07461,0.19508 0.30186,0.24332 0.68697,0.14581 2.2794,-0.57711 7.2366,-0.89559 9.49,-0.6097 1.1382,0.14441 0.66575,0.18169 -2.3112,0.18235 -2.225,4.4e-4 -4.4111,0.12358 -5.3927,0.30362 -0.90796,0.16653 -1.8985,0.30936 -2.2011,0.31739 -0.30265,0.008 -0.62305,0.11699 -0.71199,0.2421 -0.09089,0.12785 -0.16235,0.0347 -0.16317,-0.21275 z m 52.601,-3.1916 c 0,-0.16141 0.066,-0.22744 0.14674,-0.14674 0.0807,0.0807 0.0807,0.21278 0,0.29349 -0.0807,0.0807 -0.14674,0.0147 -0.14674,-0.14675 z m 0.23749,-0.78873 c 0.0106,-0.25642 0.0627,-0.30857 0.13298,-0.13298 0.0636,0.15889 0.0558,0.34873 -0.0174,0.42188 -0.0731,0.0731 -0.12517,-0.0569 -0.11561,-0.2889 z m -52.133,-0.97213 c 0,-0.42371 0.0453,-0.59705 0.10066,-0.38519 0.05536,0.21185 0.05536,0.55853 0,0.77039 -0.05536,0.21185 -0.10066,0.0385 -0.10066,-0.3852 z m 0.22011,-1.5408 c 0,-0.42372 0.0453,-0.59705 0.10066,-0.3852 0.05536,0.21186 0.05536,0.55854 0,0.77039 -0.05537,0.21186 -0.10066,0.0385 -0.10066,-0.38519 z m 0.229,-1.7609 c 0,-0.54478 0.04293,-0.76764 0.09539,-0.49525 0.05246,0.27238 0.05246,0.71811 0,0.9905 -0.05246,0.27239 -0.09539,0.0495 -0.09539,-0.49525 z m 0.22011,-1.981 c 0,-0.54477 0.04293,-0.76764 0.09539,-0.49525 0.05247,0.27239 0.05247,0.71811 0,0.9905 -0.05246,0.27239 -0.09539,0.0495 -0.09539,-0.49525 z m 0.24568,-4.0721 c 4.4e-4,-1.5738 0.03544,-2.1888 0.07791,-1.3666 0.04247,0.8222 0.04215,2.1099 -6.6e-4,2.8614 -0.04285,0.7516 -0.0776,0.0789 -0.07721,-1.4949 z m -2.9122,0.9905 c 0,-0.30265 0.04996,-0.42647 0.11102,-0.27514 0.06106,0.15133 0.06106,0.39895 0,0.55028 -0.06106,0.15133 -0.11102,0.0275 -0.11102,-0.27514 z m -0.18441,-3.7419 c 0,-0.7869 0.03995,-1.1088 0.08878,-0.71536 0.04883,0.39344 0.04883,1.0373 0,1.4307 -0.04883,0.39345 -0.08878,0.0715 -0.08878,-0.71536 z m -0.22011,-3.3017 c 0,-0.7869 0.03995,-1.1088 0.08878,-0.71536 0.04883,0.39344 0.04883,1.0373 0,1.4307 -0.04883,0.3934 -0.08878,0.0715 -0.08878,-0.71536 z m -0.2246,-3.0816 c 0,-0.66584 0.04126,-0.93823 0.0917,-0.60531 0.05043,0.33292 0.05043,0.87769 0,1.2106 -0.05043,0.33291 -0.0917,0.0605 -0.0917,-0.6053 z m -0.26772,-1.7609 c -0.01801,-0.30265 -0.21084,-1.0658 -0.42855,-1.6958 -0.2177,-0.63007 -0.31482,-1.0955 -0.21582,-1.0343 0.27591,0.17052 0.8911,2.4621 0.77754,2.8963 -0.0689,0.26348 -0.11073,0.21129 -0.13317,-0.16616 z"
       fill="#272727"
       id="path12" />
    <path
       d="m 47.584,206.41 c -0.18159,-0.0368 -1.0975,-0.18785 -2.0353,-0.33564 -1.0494,-0.16538 -1.9435,-0.44725 -2.3249,-0.73296 -2.8791,-2.1564 -5.9392,-5.6354 -7.161,-8.1409 -2.6846,-5.5054 -4.8143,-14.908 -4.8177,-21.268 -0.0042,-8.0198 3.0158,-15.498 8.6189,-21.343 1.0984,-1.1458 1.9971,-2.141 1.9971,-2.2115 0,-0.0705 -0.40861,-0.51968 -0.90802,-0.99823 -3.4226,-3.2796 -6.6323,-8.7794 -7.6842,-13.167 -0.76556,-3.1931 -0.47983,-7.7937 0.68376,-11.009 0.81729,-2.2587 3.7964,-6.3195 6.7608,-9.2156 1.7534,-1.713 2.0607,-1.926 2.7789,-1.926 1.0576,0 2.3553,0.6799 3.7019,1.9395 1.2939,1.2103 1.6099,1.7728 2.0274,3.6096 0.47393,2.0851 1.0769,11.742 0.91107,14.591 -0.23762,4.082 -0.55996,6.9742 -0.94996,8.5234 -0.31274,1.2423 -0.32963,1.6403 -0.10519,2.4794 0.14704,0.54975 0.2687,1.32 0.27035,1.7118 0.0071,1.6854 0.51222,2.0964 1.6556,1.3472 0.44639,-0.29249 0.54313,-0.53628 0.5459,-1.3757 0.004,-1.2208 0.15106,-1.4705 0.87708,-1.4898 0.30265,-0.008 1.2932,-0.14967 2.2011,-0.31475 3.4557,-0.62828 9.4066,-0.31692 13.258,0.69367 l 0.8215,0.21557 -0.77186,1.5146 c -0.90991,1.7854 -1.6854,3.9444 -1.5155,4.2193 0.27574,0.44615 0.56621,0.0897 1.5007,-1.8418 2.4285,-5.0192 6.7238,-9.8178 10.501,-11.732 1.1517,-0.58359 4.1625,-1.3849 7.902,-2.1031 2.2003,-0.42255 3.4757,-0.49867 9.7535,-0.5821 3.9722,-0.0528 7.4663,-0.0347 7.7645,0.0401 1.4727,0.36962 1.703,1.4184 0.96168,4.3804 -1.4258,5.6974 -3.1827,9.607 -5.3868,11.988 -2.1839,2.3588 -4.3749,3.3104 -8.4706,3.6792 -5.2814,0.47551 -11.854,2.3261 -15.353,4.323 -1.3406,0.76506 -1.5694,1.4008 -0.44022,1.223 0.39345,-0.0619 1.5573,-0.37227 2.5863,-0.68962 3.6281,-1.1189 8.4229,-1.8561 8.0397,-1.236 -0.07172,0.11605 0.22531,0.91736 0.66007,1.7807 1.0603,2.1056 2.2098,5.6061 2.6259,7.9972 0.99753,5.7315 -0.34754,11.008 -4.3885,17.215 -3.9479,6.0639 -8.7757,10.321 -15.874,13.999 -4.6215,2.3944 -8.1156,3.4914 -12.855,4.0359 -2.4031,0.27607 -7.4115,0.39982 -8.3642,0.20667 z m 0.99487,-4.7196 c 1.0535,-0.24343 5.0025,-2.4474 5.9386,-3.3144 0.36318,-0.33636 1.137,-0.8327 1.7197,-1.103 1.3828,-0.6415 2.1026,-1.3858 2.8815,-2.9795 0.3501,-0.71634 0.81253,-1.4266 1.0276,-1.5784 1.6333,-1.1526 3.2863,-2.8162 3.616,-3.6392 0.94747,-2.3649 1.2544,-6.2318 0.65483,-8.2507 -0.68426,-2.3041 -2.2245,-3.3328 -5.0742,-3.3888 -2.5271,-0.0496 -5.6287,0.25812 -6.1983,0.61503 -0.51982,0.32574 -1.3785,1.811 -1.3785,2.3844 0,0.80034 1.7243,-0.0448 3.0649,-1.5022 0.79253,-0.86158 0.99424,-0.70294 0.41594,0.32713 -0.50694,0.90297 -2.8777,3.2749 -3.2733,3.2749 -0.32207,0 -0.2446,0.96745 0.1156,1.4437 0.17774,0.23499 0.32632,0.48947 0.33017,0.56551 0.0039,0.076 -0.57518,0.35597 -1.2867,0.62207 -2.0796,0.77773 -3.1085,2.1227 -3.1085,4.0636 0,1.9402 0.19986,2.1943 3.6165,4.5975 0.41285,0.2904 0.40649,0.32628 -0.22543,1.2717 -0.56581,0.8465 -1.0156,1.1516 -3.4629,2.3492 -2.9265,1.4321 -2.9985,1.4988 -3.5444,3.2883 -0.2954,0.96823 1.9173,1.4738 4.1709,0.95306 z m -9.5064,-14.542 c 0.99195,-0.78026 1.2578,-2.4371 0.69509,-4.332 -0.68706,-2.3136 -4.5249,-7.3523 -6.0956,-8.0029 -0.61625,-0.25526 -0.71504,-0.23641 -1.0722,0.20461 -0.49389,0.60993 -0.74112,2.5081 -0.542,4.1612 0.20756,1.7233 1.2468,4.6488 2.0833,5.8645 1.5169,2.2047 3.6478,3.1141 4.9314,2.1045 z m 33.743,-7.1506 c 1.6066,-1.2254 2.6478,-3.2914 2.8691,-5.693 0.16413,-1.7809 -0.17979,-2.9473 -1.1449,-3.8827 -0.76202,-0.73858 -0.84145,-0.76267 -2.5151,-0.76267 -1.6035,0 -1.7893,0.0492 -2.5741,0.68177 -1.4301,1.1526 -2.1066,2.4808 -2.2281,4.3744 -0.17427,2.7156 0.57691,4.675 2.1526,5.615 0.98952,0.59031 2.4103,0.45287 3.4404,-0.33282 z m -31.54,-3.1248 c 0.17097,-1.0693 -0.02248,-1.8271 -0.42679,-1.672 -0.21012,0.0806 -0.30848,0.48519 -0.30848,1.2688 0,1.6913 0.48664,1.9582 0.73527,0.40321 z m 11.591,-6.8061 c 0,-0.1996 -0.44656,-0.90535 -0.99236,-1.5683 -1.2035,-1.4619 -1.7609,-3.1441 -1.5716,-4.7427 0.15158,-1.2798 1.2527,-3.2564 2.2338,-4.0099 0.78484,-0.60274 2.6225,-1.3521 4.0848,-1.6657 3.3868,-0.72633 -0.73647,-2.8732 -4.2598,-2.218 -4.0014,0.74414 -7.2563,3.9495 -7.5745,7.4593 -0.27228,3.0028 2.4393,6.2125 5.7891,6.8526 1.732,0.33097 2.2905,0.30481 2.2905,-0.10732 z m 23.186,-10.189 c 0.69131,-0.26283 1.4662,-1.0882 1.4662,-1.5616 0,-0.63697 -0.7254,-1.042 -2.298,-1.2831 -1.1584,-0.17759 -1.6638,-0.16925 -2.0911,0.0345 -1.0557,0.50346 -0.78798,2.3341 0.40537,2.7721 0.75608,0.27755 1.8444,0.29402 2.5175,0.0381 z m 9.7311,-3.7374 c 1.5021,-0.66443 2.0803,-1.259 2.0803,-2.1388 0,-1.4356 -1.5297,-2.0463 -4.0709,-1.6252 -1.5451,0.25606 -2.2291,0.70534 -2.8265,1.8565 -0.51857,0.99927 -0.32999,1.8299 0.51785,2.281 0.7651,0.40703 2.9671,0.21569 4.2993,-0.37357 z m -37.966,-5.0882 c 0.32283,-0.17277 0.42575,-0.46421 0.42575,-1.2055 0,-0.8101 -0.09813,-1.042 -0.57251,-1.3528 -0.79588,-0.52148 -1.2795,-0.17415 -1.3655,0.98064 -0.05037,0.67637 0.04566,1.0137 0.3852,1.3533 0.52195,0.52195 0.55783,0.52909 1.1271,0.22443 z m 4.185,-6.2838 c 0.01057,-0.25642 0.06272,-0.30857 0.13298,-0.13298 0.06358,0.15889 0.05577,0.34873 -0.01737,0.42188 -0.07314,0.0731 -0.12516,-0.0569 -0.11561,-0.2889 z m 0.27433,-1.3023 c 0.79587,-5.2743 0.91065,-6.665 0.89925,-10.896 -0.0067,-2.4818 -0.07767,-4.9085 -0.15775,-5.3927 -0.11379,-0.68813 -0.09819,-0.76778 0.07143,-0.36468 0.11936,0.28366 0.33383,2.1959 0.4766,4.2495 0.28327,4.0744 0.1307,6.303 -0.73614,10.753 -0.44221,2.2699 -0.81431,3.38 -0.55339,1.6508 z"
       fill="#030404"
       id="path14" />
  </g>
</svg>
