<svg version="1.1" xmlns="http://www.w3.org/2000/svg"
	 viewBox="0 0 710 267.96">
<g>
	<path fill="#D84759" d="M183.64,167.38h-10.65V58.08c0-1.86-1.5-3.37-3.36-3.37l-56.52,16.98c-2.59,0.64-3.36,3.06-3.36,4.92v32.43
		c0,1.86,1.5,3.37,3.36,3.37l10.1-3.03v58.01h-10.65c-1.85,0-3.36,1.51-3.36,3.37v33.97c0,1.86,1.5,3.37,3.36,3.37h71.08
		c1.85,0,3.36-1.51,3.36-3.37v-33.97C186.99,168.89,185.49,167.38,183.64,167.38z"/>
	<path fill="#D84759" d="M546.48,208.45c13.14,1.31,27.22-2.7,39.52-6.89c28.99-9.87,56.48-25.53,80.92-43.87
		c10.66-8,21.08-16.6,29.8-26.73c6.46-7.51,12.77-16.37,13.26-26.61c0.54-11.34-17.05-11.29-17.59,0c0,0.11-0.01,0.18-0.01,0.27
		c-0.01,0.06-0.03,0.12-0.04,0.2c-0.18,0.87-0.46,1.72-0.75,2.56c-0.02,0.07-0.05,0.15-0.09,0.24c-0.13,0.27-0.25,0.54-0.38,0.81
		c-0.55,1.13-1.19,2.23-1.85,3.31c-0.61,1.01-1.28,1.98-1.95,2.95c-0.35,0.51-0.72,1-1.09,1.49c-0.06,0.07-0.13,0.17-0.22,0.28
		c-1.91,2.39-3.97,4.66-6.08,6.87c-10.34,10.83-20.81,18.78-32.71,26.95c-13.61,9.35-27.98,17.65-42.86,24.81
		c-12.71,6.11-26.12,11.41-40.77,14.48c-1.5,0.31-3.01,0.58-4.52,0.82c-0.15,0.02-0.72,0.1-1.11,0.16
		c-0.54,0.06-1.07,0.12-1.61,0.18c-3.03,0.31-6.08,0.39-9.12,0.21c-0.19-0.01-1.06-0.11-1.4-0.15c-0.43-0.08-0.87-0.17-1.3-0.26
		c-1.14-0.24-2.25-0.58-3.35-0.97c1.1,0.37-1.74-0.86-2.3-1.19c-0.23-0.13-0.45-0.28-0.67-0.43c0.18,0.1-1.05-0.81-1.35-1.09
		c-0.36-0.33-1.66-1.85-1.85-2c-0.38-0.55-0.74-1.1-1.07-1.68c12.29-8.59,23.68-18.6,34.03-29.35
		c11.97-12.44,23.05-26.43,30.89-41.87c7.64-15.06,13.4-35.83,0.97-50.02c-12.83-14.64-34.07-4.13-45.86,5.78
		c-11.8,9.92-20.24,23.41-26.63,37.28c-6.16,13.37-10.9,27.5-13.29,42.05c-1.51,9.22-2.4,19.22-0.9,28.67
		c-5.26,3.12-10.68,5.96-16.27,8.44c-6.32,2.81-14.55,5.25-22.05,6.43c0.47-0.09-1.75,0.19-1.75,0.19c-0.9,0.09-1.81,0.14-2.72,0.19
		c-1.72,0.1-3.44,0.09-5.16,0.02c-0.48-0.02-0.97-0.06-1.45-0.1c0.49,0.04-1.04-0.15-1.34-0.2c-1.34-0.25-2.64-0.63-3.92-1.08
		c0.82,0.26-1.87-0.91-2.41-1.23c-0.25-0.15-0.5-0.31-0.74-0.47c-0.23-0.17-0.67-0.49-0.84-0.65c-0.75-0.65-1.42-1.38-2.06-2.12
		c-0.17-0.21-0.35-0.44-0.44-0.57c-0.43-0.62-0.81-1.27-1.18-1.92c13.72-9.37,26.38-20.33,37.5-32.67
		c13.69-15.18,26.02-32.88,33.59-51.95c6.16-15.54,4.42-35.42-12.95-42.16c-7.77-3.02-16.57-0.55-23.82,2.59
		c-9.86,4.27-18.16,12.47-24.89,20.63c-8.75,10.61-14.83,23.07-19.91,35.77c-5.46,13.62-9.11,27.99-10.4,42.62
		c-0.49,5.62-0.51,11.61,0.31,17.45c-6.61,3.92-13.46,7.44-20.51,10.5c-0.43,0.17-2.29,0.95-2.85,1.17
		c-0.89,0.35-1.78,0.69-2.68,1.01c-0.79,0.29-1.59,0.57-2.39,0.82c-1.67,0.5-3.36,0.95-5.06,1.35c-0.79,0.18-1.6,0.34-2.4,0.49
		c-0.16,0.03-1.07,0.17-1.43,0.23c-2.68,0.3-5.38,0.34-8.06,0.1c-0.07-0.01-0.13-0.02-0.22-0.04c-0.58-0.1-1.15-0.24-1.73-0.37
		c-0.77-0.18-1.52-0.43-2.26-0.69c0.24,0.04-1.75-0.84-2.23-1.13c-0.44-0.26-0.86-0.54-1.28-0.83c-0.09-0.08-0.18-0.16-0.31-0.27
		c-0.79-0.68-1.51-1.45-2.2-2.23c-0.04-0.05-0.1-0.12-0.16-0.19c-0.23-0.33-0.46-0.66-0.69-1c-0.6-0.91-1.12-1.87-1.62-2.83
		c-0.1-0.19-0.18-0.39-0.27-0.58c-0.13-0.32-0.5-1.19-0.61-1.48c-0.06-0.17-0.11-0.34-0.17-0.5c22.65-14.25,41.86-33.51,55.93-56.59
		c9.61-15.75,21.03-37.27,11.52-55.59c-8.61-16.57-29.77-12.74-42.64-4.37c-23.8,15.48-35.72,43.39-41.59,70.13
		c-2.45,11.14-4.48,24.91-3.21,37.8c-4.04,2.16-8.22,4.05-12.42,5.88c-4.4,1.92-5.36,8.27-3.15,12.03
		c2.63,4.49,7.64,5.07,12.03,3.15c2.67-1.16,5.3-2.4,7.89-3.68c2.1,4.68,5.01,8.93,8.93,12.49c11.6,10.53,27.95,9.9,42.09,5.69
		c10.18-3.16,20.08-7.89,29.46-13.33c0.38,0.64,0.78,1.26,1.21,1.88c8.27,11.95,22,15.61,35.92,14.43
		c16.39-1.38,31.96-7.75,46.16-15.86C525.23,201.93,534.66,207.27,546.48,208.45z M369.49,146.61c0.09-0.6,0.18-1.19,0.27-1.79
		c0.23-1.48,0.5-2.96,0.78-4.43c0.61-3.21,1.34-6.4,2.15-9.57c1.52-5.97,3.42-11.85,5.62-17.6c0.43-1.13,0.89-2.24,1.35-3.36
		c0.03-0.03,1.07-2.41,1.28-2.87c1.17-2.54,2.44-5.04,3.79-7.49c1.13-2.05,2.36-4.04,3.67-5.98c0.35-0.52,0.72-1.04,1.09-1.55
		c-0.08,0.14,1.4-1.75,1.35-1.69c1.28-1.55,2.64-3.04,4.01-4.51c6.07-6.5,13.22-11.99,21.17-13.64c0.07-0.02,0.12-0.03,0.19-0.04
		c0.13,0,0.33-0.01,0.63-0.03c0.74-0.05,1.49-0.02,2.23,0.02c0.01,0,0.01,0,0.02,0c0.11,0.03,0.23,0.06,0.42,0.1
		c0.38,0.08,0.74,0.19,1.11,0.31c-0.54-0.17,0.71,0.36,1.05,0.56c0.06,0.04,0.1,0.06,0.15,0.09c0.04,0.04,0.07,0.06,0.12,0.11
		c0.16,0.14,0.62,0.65,0.83,0.87c0.19,0.29,0.37,0.59,0.54,0.89c0.05,0.13,0.49,1.07,0.58,1.33c0.24,0.73,0.39,1.49,0.55,2.24
		c0.01,0.07,0.03,0.12,0.04,0.18c0,0.14,0.01,0.37,0.03,0.75c0.06,0.89,0.04,1.77,0.02,2.66c-0.08,3.74-1.33,7.89-2.94,12.2
		c-3.77,10.1-10.07,19.78-16.22,28.56c-5.68,8.11-12.35,15.51-19.54,22.32c-5.37,5.09-11.18,9.71-17.27,13.94
		c0.06-3.86,0.36-7.72,0.81-11.55C369.37,147.49,369.44,146.99,369.49,146.61z M374,184.21C373.9,184.08,373.87,184.04,374,184.21
		L374,184.21z M447.67,155.86c0.06-0.61,0.13-1.22,0.2-1.83c-0.01,0.17,0.29-2.07,0.33-2.34c1.1-7.05,2.88-13.99,5.02-20.8
		c4.01-12.77,8.7-23.52,16.53-35.31c0.75-1.13,1.54-2.24,2.34-3.33c0.08-0.11,0.14-0.2,0.2-0.27c0.77-0.97,1.58-1.92,2.38-2.86
		c3.53-4.15,7.48-8.11,11.93-11.26c3.38-2.4,6.48-3.99,9.67-4.98c0.82-0.25,1.66-0.43,2.5-0.61c0.1-0.02,0.18-0.04,0.26-0.06
		c0.13,0,0.31-0.01,0.57-0.03c0.75-0.06,1.5-0.03,2.25-0.01c0.14,0,0.23,0.01,0.3,0c0.15,0.05,0.41,0.12,0.83,0.22
		c0.21,0.05,0.78,0.27,1.1,0.38c0.33,0.18,0.66,0.37,0.98,0.57c0.07,0.07,0.15,0.14,0.26,0.24c0.16,0.14,0.54,0.6,0.75,0.84
		c0.22,0.35,0.43,0.72,0.63,1.08c0.05,0.08,0.08,0.14,0.12,0.2c0.03,0.09,0.06,0.18,0.1,0.29c0.25,0.71,0.42,1.44,0.59,2.17
		c0.04,0.2,0.06,0.35,0.09,0.47c0.03,0.4,0.07,0.8,0.09,1.2c0.43,7.85-3.78,16.26-7.98,23.95c-13.03,23.86-31.25,44.05-52.49,59.81
		c0.02-1,0.04-2,0.09-3C447.38,159.02,447.52,157.44,447.67,155.86z M530.16,159.84c0.09-1.6,0.24-3.19,0.4-4.78
		c0.01-0.13,0.15-1.25,0.18-1.55c0.09-0.6,0.18-1.21,0.27-1.81c0.57-3.63,1.34-7.23,2.2-10.8c1.7-7.01,3.96-13.88,6.57-20.59
		c0.31-0.8,0.63-1.59,0.95-2.38c0.09-0.22,0.15-0.38,0.21-0.51c0.06-0.13,0.12-0.29,0.22-0.51c0.66-1.53,1.35-3.05,2.06-4.56
		c1.46-3.13,3.05-6.21,4.74-9.23c1.43-2.57,2.98-5.08,4.6-7.53c0.75-1.13,1.54-2.24,2.34-3.33c0.08-0.11,0.14-0.2,0.2-0.27
		c1.09-1.38,2.24-2.71,3.4-4.03c5.9-6.74,13.55-13.21,21.22-15.23c0.16-0.04,1.32-0.24,1.58-0.3c0.51-0.03,1.02-0.05,1.54-0.05
		c0.21,0,0.87,0.07,1.23,0.1c0.41,0.1,0.82,0.21,1.23,0.33c0.04,0.01,0.06,0.02,0.1,0.03c0.06,0.03,0.13,0.07,0.21,0.11
		c0.2,0.1,0.76,0.48,1.01,0.64c0.26,0.25,0.52,0.51,0.77,0.77c0.02,0.02,0.03,0.03,0.04,0.05c0.2,0.29,0.39,0.59,0.57,0.9
		c0.1,0.17,0.43,0.89,0.57,1.17c0.16,0.5,0.31,1,0.45,1.5c0.19,0.67,0.31,1.36,0.42,2.04c-0.22-1.2,0.05,1.27,0.05,1.42
		c0.2,4.4-0.53,7.45-1.89,12c-2.22,7.44-6.21,14.32-10.35,20.83c-9.43,14.81-21.56,27.88-34.83,39.77
		c-3.99,3.58-8.13,7.01-12.41,10.26C530.03,162.81,530.08,161.32,530.16,159.84z"/>
	<path fill="#D84759" d="M148.1,49.81c13.75,0,24.9-11.15,24.9-24.9C173,11.15,161.85,0,148.1,0c-13.75,0-24.9,11.15-24.9,24.9
		C123.19,38.66,134.34,49.81,148.1,49.81z"/>
	<path fill="#D84759" d="M89.42,54.71h-26c0-0.87,0-1.73,0-2.62V18.38c0,0,0.84-9.47-9.25-5.96c-10.09,3.51-33.28,10.26-33.28,10.26
		s-5.39,0.77-5.39,7.77c0,5.9,0.08,9.33,0.17,24.25H3.36C1.5,54.71,0,56.22,0,58.08v33.98c0,1.86,1.5,3.37,3.36,3.37h12.45
		c0.04,18.07,0.06,41.98,0.06,74.03c0,0-3.04,60,72.75,30.46c0,0,3.81-2.07,4.12-5.38v-32.9c0,0,0.05-5.03-4.66-2.77
		c0,0-24.66,11.24-24.66-4.87c0-12.93,0-13.56,0-58.57h26c1.85,0,3.36-1.51,3.36-3.37V58.08C92.77,56.22,91.27,54.71,89.42,54.71z"
		/>
	<path fill="#D84759" d="M276.12,54.71c-8.12,0-15.9,1.65-23.1,4.68v-1.43c0-1.86-1.5-3.37-3.36-3.37h-57.32
		c-1.85,0-3.36,1.51-3.36,3.37v33.98c0,1.86,1.5,3.37,3.36,3.37h10.9v131.93h-10.9c-1.85,0-3.36,1.51-3.36,3.37v33.98
		c0,1.86,1.5,3.37,3.36,3.37h71.33c1.86,0,3.36-1.51,3.36-3.37v-33.98c0-1.86-1.5-3.37-3.36-3.37h-10.65v-23.82
		c7.2,3.02,14.98,4.68,23.1,4.68c37.02,0,67.02-34.34,67.02-76.69S313.14,54.71,276.12,54.71z M276.88,168.33
		c-13.27-0.06-23.95-16.64-23.86-37.03c0.09-20.39,10.92-36.88,24.19-36.82c13.27,0.06,23.95,16.64,23.86,37.03
		C300.98,151.9,290.15,168.38,276.88,168.33z"/>
	<path fill="#D84759" d="M544.93,249.9c-5.56,0-8.6,4.8-8.6,8.68c0,4.04,3.58,8.22,8.6,8.22c5.71,0,8.76-3.66,8.76-8.22
		C553.69,254.7,550.49,249.9,544.93,249.9z"/>
	<path fill="#D84759" d="M578.58,256.38c-4.87-0.08-7.84-4.04-7.84-8.99c0-4.95,2.21-9.75,6.7-9.75c3.5,0,4.65,4.34,4.8,8h11.2v-17.21
		h-8.99l-1.29,3.65c-1.29-1.52-4.34-4.34-9.52-4.34c-9.75,0-18.73,6.02-18.73,19.49c0,13.56,9.75,20.33,20.94,20.33
		c8.23,0,15.08-3.88,18.66-7.77l-6.7-7.77C585.29,254.78,582.62,256.45,578.58,256.38z"/>
	<path fill="#D84759" d="M616.96,227.51c-10.51,0-20.79,7.08-20.86,19.8c-0.15,13.48,10.36,20.18,21.25,20.18
		c11.58,0,20.94-7.24,20.79-19.88C637.9,234.9,628.99,227.67,616.96,227.51z M617.34,257.75c-3.2,0-5.63-4.11-5.63-10.36
		c0-5.56,2.28-9.98,5.25-9.98c3.58,0.08,5.56,4.49,5.56,10.2C622.52,253.33,620.62,257.75,617.34,257.75z"/>
	<path fill="#D84759" d="M703.24,245.71c0-9.29-1.9-18.28-14.24-18.28c-5.25,0-8.83,2.82-11.19,5.48c-1.22-1.83-3.66-5.48-11.35-5.48
		c-4.8,0-8.3,4.11-9.52,5.56l-1.68-4.49h-14.39v10.05h3.2v17.97h-3.2v9.98h22.62v-9.98h-4.57v-13.55c0-3.12,0.99-4.57,3.43-4.57
		c3.05,0,3.2,2.51,3.2,8.68v19.42h19.72v-10.2h-4.57v-12.34c0-3.27,0.76-5.56,4.04-5.56c3.58,0,2.89,5.79,2.89,9.44v18.66h19.34
		v-10.28h-3.73V245.71z"/>
</g>
</svg>
