<?xml version="1.0" encoding="UTF-8" standalone="no"?>
<svg
   viewBox="0 0 512 512"
   style="height: 512px; width: 512px;"
   version="1.1"
   id="svg4"
   sodipodi:docname="cog.svg"
   inkscape:version="1.1.2 (0a00cf5339, 2022-02-04)"
   xmlns:inkscape="http://www.inkscape.org/namespaces/inkscape"
   xmlns:sodipodi="http://sodipodi.sourceforge.net/DTD/sodipodi-0.dtd"
   xmlns:xlink="http://www.w3.org/1999/xlink"
   xmlns="http://www.w3.org/2000/svg"
   xmlns:svg="http://www.w3.org/2000/svg">
  <defs
     id="defs8">
    <linearGradient
       inkscape:collect="always"
       id="linearGradient1135">
      <stop
         style="stop-color:#ffac02;stop-opacity:1"
         offset="0"
         id="stop1131" />
      <stop
         style="stop-color:#ffde9b;stop-opacity:1"
         offset="1"
         id="stop1133" />
    </linearGradient>
    <linearGradient
       inkscape:collect="always"
       xlink:href="#linearGradient1135"
       id="linearGradient1137"
       x1="257.71924"
       y1="500.52991"
       x2="257.71924"
       y2="18.155756"
       gradientUnits="userSpaceOnUse" />
    <linearGradient
       inkscape:collect="always"
       xlink:href="#linearGradient1135"
       id="linearGradient5175"
       x1="256.67715"
       y1="507.16058"
       x2="265.10571"
       y2="-2.2805831"
       gradientUnits="userSpaceOnUse" />
  </defs>
  <sodipodi:namedview
     id="namedview6"
     pagecolor="#505050"
     bordercolor="#eeeeee"
     borderopacity="1"
     inkscape:pageshadow="0"
     inkscape:pageopacity="0"
     inkscape:pagecheckerboard="0"
     showgrid="false"
     inkscape:zoom="1.28125"
     inkscape:cx="255.60976"
     inkscape:cy="256"
     inkscape:window-width="1920"
     inkscape:window-height="1115"
     inkscape:window-x="0"
     inkscape:window-y="0"
     inkscape:window-maximized="1"
     inkscape:current-layer="svg4" />
  <path
     d="m 234.875,18.78 c -26.087,2.367 -51.557,8.56 -74.875,18.782 15.37,32.763 14.222,66.706 -6.72,82.407 -20.835,15.617 -54.055,7.965 -81.124,-15.69 -16.246,19.452 -29.336,41.36 -38.875,65.626 33.83,12.333 56.635,37.665 52.94,63.5 -3.698,25.835 -32.697,43.74 -68.626,46.094 2.338,25.796 8.91,50.778 18.937,73.875 17.81,-8.182 35.793,-11.09 51.095,-8.938 13.032,1.87 23.927,7.015 31.156,16.657 15.817,21.097 7.603,54.713 -16.78,81.97 19.516,16.35 42.216,29.444 66.594,39.03 12.33,-33.828 37.655,-56.634 63.5,-52.938 25.844,3.697 43.74,32.696 46.094,68.625 26.087,-2.365 51.557,-8.555 74.875,-18.78 -15.766,-32.997 -14.26,-67.588 6.843,-83.406 9.64,-7.23 22.568,-9.022 35.594,-7.125 15.112,2.16 31.19,10.25 45.563,22.78 16.088,-19.345 29.4,-41.51 38.875,-65.594 -33.83,-12.332 -56.635,-37.653 -52.938,-63.5 3.697,-25.846 32.665,-43.772 68.594,-46.125 -2.36,-25.944 -8.774,-50.663 -18.906,-73.874 -32.612,15.117 -66.66,13.145 -82.282,-7.687 -15.696,-20.944 -7.252,-53.86 16.688,-81 C 391.577,57.117 368.849,44.022 344.472,34.437 332.14,68.265 306.815,91.097 280.972,87.405 255.126,83.712 237.228,54.709 234.877,18.78 Z"
     id="path2"
     style="fill:#000000;fill-opacity:0.204988;stroke:url(#linearGradient1137);stroke-width:20;stroke-linecap:round;stroke-linejoin:round;stroke-miterlimit:4;stroke-dasharray:none;paint-order:markers fill stroke"
     sodipodi:nodetypes="cccccccccccccccccccccccccccc" />
  <ellipse
     style="fill:none;fill-opacity:0.204988;stroke:url(#linearGradient5175);stroke-width:20;stroke-linecap:round;stroke-linejoin:round;stroke-miterlimit:4;stroke-dasharray:none;stroke-opacity:1;paint-order:markers fill stroke"
     id="path5167"
     cx="256"
     cy="256"
     rx="100"
     ry="100" />
</svg>
