<?xml version="1.0" encoding="UTF-8" standalone="no"?>
<svg
   viewBox="0 0 512 512"
   style="height: 512px; width: 512px;"
   version="1.1"
   id="svg6"
   sodipodi:docname="school-bag.svg"
   inkscape:version="1.1.2 (0a00cf5339, 2022-02-04)"
   xmlns:inkscape="http://www.inkscape.org/namespaces/inkscape"
   xmlns:sodipodi="http://sodipodi.sourceforge.net/DTD/sodipodi-0.dtd"
   xmlns:xlink="http://www.w3.org/1999/xlink"
   xmlns="http://www.w3.org/2000/svg"
   xmlns:svg="http://www.w3.org/2000/svg">
  <defs
     id="defs10">
    <linearGradient
       inkscape:collect="always"
       id="linearGradient1461">
      <stop
         style="stop-color:#ffab01;stop-opacity:1"
         offset="0"
         id="stop1457" />
      <stop
         style="stop-color:#ffde9b;stop-opacity:1"
         offset="1"
         id="stop1459" />
    </linearGradient>
    <linearGradient
       inkscape:collect="always"
       xlink:href="#linearGradient1461"
       id="linearGradient1463"
       x1="256.83328"
       y1="499.8624"
       x2="256.83328"
       y2="19.538593"
       gradientUnits="userSpaceOnUse" />
  </defs>
  <sodipodi:namedview
     id="namedview8"
     pagecolor="#505050"
     bordercolor="#eeeeee"
     borderopacity="1"
     inkscape:pageshadow="0"
     inkscape:pageopacity="0"
     inkscape:pagecheckerboard="0"
     showgrid="false"
     inkscape:zoom="1.28125"
     inkscape:cx="255.60976"
     inkscape:cy="256"
     inkscape:window-width="1920"
     inkscape:window-height="1115"
     inkscape:window-x="0"
     inkscape:window-y="0"
     inkscape:window-maximized="1"
     inkscape:current-layer="svg6" />
  <g
     class=""
     transform="translate(0,0)"
     style="fill:#000000;fill-opacity:0.20468114;stroke:url(#linearGradient1463);stroke-width:20;stroke-miterlimit:4;stroke-dasharray:none;paint-order:markers fill stroke;stroke-linejoin:round;stroke-linecap:round"
     id="g4">
    <path
       d="m 143.6,25.42 c -8.4,0.08 -18.2,0.34 -26.2,1.95 -4.9,0.98 -8.9,2.5 -10.8,3.86 -1.2,0.8 -1.6,1.22 -1.8,1.67 l 23.6,59.19 c 0,-0.04 0.1,-0.09 0.1,-0.13 5.1,-7.32 11.6,-13.41 20.6,-13.41 h 21 z m 224.8,0 -26.5,53.13 h 21 c 9.1,0 15.5,6.22 20.6,13.65 l 23.7,-59.3 c -0.2,-0.45 -0.6,-0.87 -1.8,-1.67 -1.9,-1.36 -5.9,-2.88 -10.8,-3.86 -8,-1.61 -17.8,-1.85 -26.2,-1.95 z M 256,38.47 c -31.2,0 -62.5,16.36 -62.5,49.08 h 18 c 0,-41.42 89,-41.42 89,0 h 18 C 318.5,54.83 287.2,38.47 256,38.47 Z M 149.1,96.55 c 0,0 -2.3,0.61 -5.8,5.75 -3.6,5 -7.7,13.5 -11.6,24.5 -7.8,22 -15.3,54.1 -21.7,91.7 -14.705106,68.83868 -86.50924,256.47231 26.1,270.6 32.4,3.9 76.2,5.9 119.9,5.9 43.7,0 87.5,-2 119.9,-5.9 100.96187,-14.66594 38.36182,-195.39628 26.1,-268.4 -6.4,-38 -13.9,-70.6 -21.7,-93.1 -4,-11.2 -8,-19.9 -11.6,-25.2 -3.6,-5.23 -6,-5.85 -5.8,-5.85 z M 256,119 c 23.1,0 46.2,4.1 65.2,12.8 19.1,8.7 34.7,22.6 39.5,42 l 0.1,0.1 31.3,136.3 H 119.9 l 31.3,-136.3 0.1,-0.1 c 4.8,-19.4 20.4,-33.3 39.5,-42 19,-8.7 42.1,-12.8 65.2,-12.8 z m 0,18 c -20.9,0 -41.8,3.9 -57.8,11.2 -15.9,7.3 -26.3,17.4 -29.5,29.9 l -26.2,114.1 h 227 L 343.3,178.1 C 340.1,165.6 329.7,155.5 313.8,148.2 297.8,140.9 276.9,137 256,137 Z m -64,46 h 128 v 18 h -87 v 26.6 H 215 V 201 h -23 z m -69.8,153.8 h 18 c 0,34.9 4.6,60.5 12.4,76.2 7.9,15.6 17.3,21.7 32.1,21.7 h 142.6 c 14.8,0 24.2,-6.1 32.1,-21.7 7.8,-15.7 12.4,-41.3 12.4,-76.2 h 18 c 0,36.4 -4.4,64.3 -14.4,84.2 -10,20 -27.3,31.7 -48.1,31.7 H 184.7 c -20.8,0 -38.1,-11.7 -48.1,-31.7 -10,-19.9 -14.4,-47.8 -14.4,-84.2 z"
       fill="#fff"
       fill-opacity="1"
       id="path2"
       style="fill:#000000;fill-opacity:0.204681;stroke:url(#linearGradient1463);stroke-width:13;stroke-linecap:round;stroke-linejoin:round;stroke-miterlimit:4;stroke-dasharray:none;paint-order:markers fill stroke"
       sodipodi:nodetypes="ccccccsccccscccccsccccsccsccsccccccsccccccccssccccccsccccccccccccssccccsscc" />
  </g>
</svg>
