<?xml version="1.0" encoding="UTF-8" standalone="no"?>
<svg version="1.1" viewBox="0 0 100 100" height="100" width="100" id="svg29" sodipodi:docname="puwu.svg"
   inkscape:version="1.1.2 (0a00cf5339, 2022-02-04)"
   inkscape:export-filename="/home/n/frontJs/game/entities/puwu/puwu.png" inkscape:export-xdpi="96"
   inkscape:export-ydpi="96" xmlns:inkscape="http://www.inkscape.org/namespaces/inkscape"
   xmlns:sodipodi="http://sodipodi.sourceforge.net/DTD/sodipodi-0.dtd" xmlns="http://www.w3.org/2000/svg"
   xmlns:svg="http://www.w3.org/2000/svg">
   <defs id="defs33" />
   <sodipodi:namedview id="namedview31" pagecolor="#505050" bordercolor="#eeeeee" borderopacity="1"
      inkscape:pageshadow="0" inkscape:pageopacity="0" inkscape:pagecheckerboard="0" showgrid="false"
      inkscape:zoom="6.56" inkscape:cx="49.695122" inkscape:cy="50" inkscape:window-width="1920"
      inkscape:window-height="1131" inkscape:window-x="0" inkscape:window-y="0" inkscape:window-maximized="1"
      inkscape:current-layer="svg29" />
   <linearGradient id="linearGradient1790" x1="50" x2="50.306" y1="100" y2="199.15"
      gradientTransform="matrix(1,0,0,-1,0,200)" gradientUnits="userSpaceOnUse">
      <stop stop-color="#1700ff" offset="0" id="stop2" />
      <stop stop-color="#ff0202" offset="1" id="stop4" />
   </linearGradient>
   <path d="M 0,0 H 100 V 100 H 0 Z" fill="url(#linearGradient1790)" stroke-width="15" id="path7"
      style="fill:url(#linearGradient1790)" />
   <g fill="#ffffff" id="g19" transform="matrix(1,0,0,-1,0,100)">
      <g stroke="#ffffff" id="g15">
         <polygon
            points="82.051,59.782 89.671,67.402 92.46,77.811 89.671,88.22 82.051,95.84 71.642,98.629 61.233,95.84 53.614,88.22 50.824,77.811 53.614,67.402 61.233,59.782 71.642,56.993 "
            id="polygon9" />
         <polygon
            points="17.276,59.782 27.685,56.993 38.094,59.782 45.714,67.402 48.503,77.811 45.714,88.22 38.094,95.84 27.685,98.629 17.276,95.84 9.656,88.22 6.867,77.811 9.656,67.402 "
            id="polygon11" />
         <path
            d="m 83.418,50.669 -7.413,-1.984 -5.427,-5.419 -1.986,-7.402 1.986,-7.402 5.427,-5.419 7.413,-1.983 z m 0,0 V 21.06 l 7.412,1.983 5.427,5.419 1.986,7.402 -1.986,7.402 -5.427,5.419 z"
            id="path13" />
      </g>
      <path
         d="m 66.342,10.292 c -9.4327,-1.1588 -16.1,-2.6986 -32.684,0 C 33.658,32.222 40.9746,50 50,50 59.0254,50 66.342,32.222 66.342,10.292 Z"
         id="path17" />
   </g>
   <g fill-rule="evenodd" id="g27" transform="matrix(1,0,0,-1,0,100)">
      <circle cx="27.684999" cy="77.810997" r="14.801" id="circle21" />
      <circle cx="71.641998" cy="77.810997" r="14.801" id="circle23" />
      <rect x="87.017998" width="12.982" height="11.408" id="rect25" y="0" />
   </g>
</svg>