<?xml version="1.0" encoding="UTF-8" standalone="no"?>
<!-- Created with Inkscape (http://www.inkscape.org/) -->

<svg
   version="1.1"
   id="svg5"
   width="100px"
   height="100px"
   inkscape:version="1.2.2 (b0a8486541, 2022-12-01, custom)"
   sodipodi:docname="a"
   xmlns:inkscape="http://www.inkscape.org/namespaces/inkscape"
   xmlns:sodipodi="http://sodipodi.sourceforge.net/DTD/sodipodi-0.dtd"
   xmlns="http://www.w3.org/2000/svg"
   xmlns:svg="http://www.w3.org/2000/svg">
  <sodipodi:namedview
     id="namedview7"
     pagecolor="#505050"
     bordercolor="#eeeeee"
     borderopacity="1"
     inkscape:showpageshadow="0"
     inkscape:pageopacity="0"
     inkscape:pagecheckerboard="0"
     inkscape:deskcolor="#505050"
     inkscape:document-units="mm"
     showgrid="false"
     inkscape:zoom="3.3638608"
     inkscape:cx="70.603397"
     inkscape:cy="61.536434"
     inkscape:window-width="1920"
     inkscape:window-height="1115"
     inkscape:window-x="0"
     inkscape:window-y="0"
     inkscape:window-maximized="1"
     inkscape:current-layer="text142" />
  <defs
     id="defs2" />
  <g
     aria-label="A"
     id="text142"
     style="font-size:85.3333px">
    <rect
       style="fill:#05ff02;fill-opacity:0.198364;stroke:#000000;stroke-width:5;stroke-dasharray:none;stroke-opacity:1"
       id="rect509"
       width="94.126137"
       height="94.083115"
       x="2.8884804"
       y="2.901263"
       ry="46.070831" />
    <path
       d="m 50.238208,23.412173 c -11.001181,0.0065 -16.741571,23.319174 -11.416661,30.958321 5.32491,7.639147 17.55323,7.644274 22.87499,0 C 67.018297,46.72622 61.239389,23.405659 50.238208,23.412173 Z M 45.48821,15.12051 c 10.450184,-7.196193 -0.904379,-7.197844 9.541663,0 10.446042,7.197844 30.831304,51.870914 23.708324,62.208307 -7.12298,10.337393 -5.253084,2.469109 -8.749997,0 -3.496913,-2.469109 0.456779,-11.634671 -5.666664,-15.958326 -6.123443,-4.323655 -21.918212,-4.323655 -28.041655,0 -6.123443,4.323655 -2.152732,13.477201 -5.666664,15.958326 -3.513932,2.481125 -1.741821,10.358672 -8.874997,0 C 14.605044,66.970145 35.038026,22.316704 45.48821,15.12051 Z"
       id="path302"
       sodipodi:nodetypes="zzzzzzzzzzzzz" />
  </g>
</svg>
