<?xml version="1.0" encoding="UTF-8" standalone="no"?>
<svg
   width="100px"
   height="100px"
   version="1.1"
   viewBox="0 0 100 100"
   id="svg3443"
   sodipodi:docname="attack.svg"
   inkscape:version="1.2.2 (b0a8486541, 2022-12-01, custom)"
   xmlns:inkscape="http://www.inkscape.org/namespaces/inkscape"
   xmlns:sodipodi="http://sodipodi.sourceforge.net/DTD/sodipodi-0.dtd"
   xmlns:xlink="http://www.w3.org/1999/xlink"
   xmlns="http://www.w3.org/2000/svg"
   xmlns:svg="http://www.w3.org/2000/svg">
  <sodipodi:namedview
     id="namedview3445"
     pagecolor="#505050"
     bordercolor="#eeeeee"
     borderopacity="1"
     inkscape:showpageshadow="0"
     inkscape:pageopacity="0"
     inkscape:pagecheckerboard="0"
     inkscape:deskcolor="#505050"
     showgrid="false"
     inkscape:zoom="6.675088"
     inkscape:cx="36.179298"
     inkscape:cy="55.879413"
     inkscape:window-width="1920"
     inkscape:window-height="1115"
     inkscape:window-x="0"
     inkscape:window-y="0"
     inkscape:window-maximized="1"
     inkscape:current-layer="svg3443" />
  <defs
     id="defs3433">
    <linearGradient
       inkscape:collect="always"
       id="linearGradient4036">
      <stop
         style="stop-color:#ffa900;stop-opacity:1;"
         offset="0"
         id="stop4032" />
      <stop
         style="stop-color:#ffd79b;stop-opacity:1;"
         offset="1"
         id="stop4034" />
    </linearGradient>
    <linearGradient
       inkscape:collect="always"
       xlink:href="#linearGradient1930"
       id="linearGradient1932"
       x1="50"
       y1="65.25"
       x2="50"
       y2="35"
       gradientUnits="userSpaceOnUse" />
    <linearGradient
       inkscape:collect="always"
       id="linearGradient1930">
      <stop
         style="stop-color:#ffa900;stop-opacity:0.49950519;"
         offset="0"
         id="stop1926" />
      <stop
         style="stop-color:#ffd79b;stop-opacity:0.49622682;"
         offset="1"
         id="stop1928" />
    </linearGradient>
    <linearGradient
       inkscape:collect="always"
       xlink:href="#linearGradient4036"
       id="linearGradient4030"
       x1="264.21497"
       y1="502.97781"
       x2="264.21497"
       y2="22.446129"
       gradientUnits="userSpaceOnUse" />
  </defs>
  <circle
     style="fill:#000000;fill-opacity:0.1952244;stroke:url(#linearGradient1932);stroke-width:0.5;stroke-dasharray:none;stroke-opacity:1"
     id="path1841"
     cy="50"
     cx="50"
     r="45" />
  <g
     class=""
     id="g10976"
     transform="matrix(0.12838667,0,0,0.12838667,17.454562,15.466774)"
     style="fill:#000000;fill-opacity:0.200583;stroke:url(#linearGradient4030);stroke-width:7.78897062;stroke-dasharray:none;stroke-opacity:1">
    <path
       d="m 91.773,25.994 c 97.54,141.86 12.747,131.176 -26.133,143.206 38.8,52.918 16.554,102.644 -44.503,133.788 52.5,21.085 122.25,30.452 42.027,141.707 79.578,-45.024 134.707,-48.82 127.13,53.15 57.795,-58.495 133.043,-87.973 208.054,-38.53 -8.558,-73.916 12.66,-106.284 86.88,-74.4 -79.58,-73.01 -46.696,-116.363 0.458,-158.83 -81.492,-3.232 -92.92,-65.497 -89.922,-139.92 -49.183,53.518 -86.497,47.756 -104.002,-56.962 -33.806,76.857 -79.335,125.91 -199.99,-3.21 z M 202.15,135.336 c 16.1,0.356 25.565,12.198 34.666,24.678 L 177.312,263.08 c -20.422,1.985 -35.31,-4.577 -41.787,-24.123 l 59.51,-103.074 c 1.93,-0.326 3.772,-0.503 5.537,-0.545 0.534,-0.013 1.06,-0.014 1.578,-0.002 z m 69.037,11.197 c 16.1,0.352 25.567,12.2 34.668,24.676 L 238.947,290.24 c -20.423,1.985 -35.31,-4.586 -41.785,-24.127 l 66.91,-119.03 c 1.93,-0.327 3.772,-0.507 5.537,-0.55 0.533,-0.013 1.058,-0.013 1.577,-0.002 z m 58.704,32.05 c 16.102,0.357 25.567,12.198 34.67,24.673 l -65.945,117.547 c -20.423,1.98 -35.31,-4.58 -41.783,-24.123 l 65.94,-117.55 c 1.93,-0.325 3.773,-0.502 5.54,-0.544 0.532,-0.013 1.06,-0.013 1.58,-0.002 z m 46.342,55.233 c 16.773,0.098 26.746,11.977 36.354,24.485 l -55.557,96.227 c -20.026,1.297 -34.856,-5.367 -41.786,-24.125 l 55.56,-96.224 c 1.887,-0.255 3.693,-0.372 5.428,-0.362 z m -248.683,37.897 105.83,47.52 c 3.015,21.69 -2.782,38.788 -21.958,48.91 L 105.588,320.62 c -4.508,-21.618 8.273,-35.485 21.96,-48.907 z"
       fill="#ffffff"
       fill-opacity="1"
       id="path10974"
       style="fill:#000000;fill-opacity:0.200583;stroke:url(#linearGradient4030);stroke-width:7.78897062;stroke-dasharray:none;stroke-opacity:1" />
  </g>
</svg>
