<?xml version="1.0" encoding="UTF-8" standalone="no"?>
<!-- Created with Inkscape (http://www.inkscape.org/) -->

<svg
   version="1.1"
   id="svg5"
   width="100px"
   height="100px"
   inkscape:version="1.2.2 (b0a8486541, 2022-12-01, custom)"
   sodipodi:docname="d"
   xmlns:inkscape="http://www.inkscape.org/namespaces/inkscape"
   xmlns:sodipodi="http://sodipodi.sourceforge.net/DTD/sodipodi-0.dtd"
   xmlns="http://www.w3.org/2000/svg"
   xmlns:svg="http://www.w3.org/2000/svg">
  <sodipodi:namedview
     id="namedview7"
     pagecolor="#505050"
     bordercolor="#eeeeee"
     borderopacity="1"
     inkscape:showpageshadow="0"
     inkscape:pageopacity="0"
     inkscape:pagecheckerboard="0"
     inkscape:deskcolor="#505050"
     inkscape:document-units="mm"
     showgrid="false"
     inkscape:zoom="3.3638608"
     inkscape:cx="70.603397"
     inkscape:cy="61.536434"
     inkscape:window-width="1920"
     inkscape:window-height="1115"
     inkscape:window-x="0"
     inkscape:window-y="0"
     inkscape:window-maximized="1"
     inkscape:current-layer="text142" />
  <defs
     id="defs2" />
  <g
     aria-label="A"
     id="text142"
     style="font-size:85.3333px">
    <rect
       style="fill:#02ffff;fill-opacity:0.19836426;stroke:#000000;stroke-width:5;stroke-dasharray:none;stroke-opacity:1"
       id="rect509"
       width="94.126137"
       height="94.083115"
       x="2.8884804"
       y="2.901263"
       ry="46.070831" />
    <g
       aria-label="C"
       id="text1760"
       style="stroke-width:5" />
    <g
       aria-label="D"
       id="text2204"
       style="stroke-width:5">
      <path
         d="m 36.660512,25.812513 c -11.402092,11.402092 -11.402092,36.972888 0,48.37498 2.396305,2.396305 6.815921,0.507038 10.166663,0 6.498035,-0.98329 14.152448,-1.220229 18.833325,-5.833331 4.59858,-4.531996 6.006491,-11.960199 5.999998,-18.416659 -0.0065,-6.416856 -1.425099,-13.792061 -5.999998,-18.291659 -4.685514,-4.608392 -12.33529,-4.850041 -18.833325,-5.833331 -3.350742,-0.507038 -7.770358,-2.396305 -10.166663,0 z m -8.416663,-6.916664 c 4.075683,-4.075683 11.582907,-0.795314 17.29166,0 9.109464,1.269083 19.818738,1.265097 26.541655,7.541664 6.085409,5.681384 8.457811,15.174708 8.45833,23.49999 5.21e-4,8.36919 -2.384029,17.911997 -8.499996,23.62499 -6.711466,6.269255 -17.404018,6.272543 -26.499989,7.541663 -5.708589,0.796494 -13.215977,4.075683 -17.29166,0 -14.662639,-14.662639 -14.662639,-47.545668 0,-62.208307 z"
         id="path2519"
         sodipodi:nodetypes="aaaaaaaaaaaaaaaa" />
    </g>
  </g>
</svg>
