<?xml version="1.0" encoding="UTF-8" standalone="no"?>
<svg
   width="100px"
   height="100px"
   version="1.1"
   viewBox="0 0 100 100"
   id="svg3443"
   sodipodi:docname="slide.svg"
   inkscape:version="1.2.2 (b0a8486541, 2022-12-01, custom)"
   xmlns:inkscape="http://www.inkscape.org/namespaces/inkscape"
   xmlns:sodipodi="http://sodipodi.sourceforge.net/DTD/sodipodi-0.dtd"
   xmlns:xlink="http://www.w3.org/1999/xlink"
   xmlns="http://www.w3.org/2000/svg"
   xmlns:svg="http://www.w3.org/2000/svg">
  <sodipodi:namedview
     id="namedview3445"
     pagecolor="#505050"
     bordercolor="#eeeeee"
     borderopacity="1"
     inkscape:showpageshadow="0"
     inkscape:pageopacity="0"
     inkscape:pagecheckerboard="0"
     inkscape:deskcolor="#505050"
     showgrid="false"
     inkscape:zoom="4.72"
     inkscape:cx="4.5550847"
     inkscape:cy="55.084746"
     inkscape:window-width="1920"
     inkscape:window-height="1115"
     inkscape:window-x="0"
     inkscape:window-y="0"
     inkscape:window-maximized="1"
     inkscape:current-layer="svg3443" />
  <defs
     id="defs3433">
    <linearGradient
       inkscape:collect="always"
       id="linearGradient878">
      <stop
         style="stop-color:#ffa900;stop-opacity:1;"
         offset="0"
         id="stop874" />
      <stop
         style="stop-color:#ffd79b;stop-opacity:1;"
         offset="1"
         id="stop876" />
    </linearGradient>
    <linearGradient
       inkscape:collect="always"
       xlink:href="#linearGradient1930"
       id="linearGradient1932"
       x1="50"
       y1="65.25"
       x2="50"
       y2="35"
       gradientUnits="userSpaceOnUse" />
    <linearGradient
       inkscape:collect="always"
       id="linearGradient1930">
      <stop
         style="stop-color:#ffa900;stop-opacity:0.49950519;"
         offset="0"
         id="stop1926" />
      <stop
         style="stop-color:#ffd79b;stop-opacity:0.49622682;"
         offset="1"
         id="stop1928" />
    </linearGradient>
    <linearGradient
       inkscape:collect="always"
       xlink:href="#linearGradient878"
       id="linearGradient13516"
       x1="264.89841"
       y1="492.41116"
       x2="265.54984"
       y2="13.501075"
       gradientUnits="userSpaceOnUse" />
  </defs>
  <circle
     style="fill:#000000;fill-opacity:0.1952244;stroke:url(#linearGradient1932);stroke-width:0.5;stroke-dasharray:none;stroke-opacity:1"
     id="path1841"
     cy="50"
     cx="50"
     r="45" />
  <g
     class=""
     id="g12626"
     transform="matrix(-0.12621178,0,0,0.12621178,82.540365,17.991494)"
     style="stroke:url(#linearGradient13516);stroke-width:7.92319069;stroke-dasharray:none;fill:#000000;fill-opacity:0.20058301">
    <path
       d="M 169.53,16.344 259.345,88 337,92.28 l -1.03,18.657 -161.376,-8.906 -118.78,-4.905 227.28,68.03 -197.72,246.75 -14.53,-17.655 -49.22,96.625 248.69,-202.78 51.81,11.592 -38.78,40.594 L 270.5,329.5 213.22,413.625 444.843,273.47 328,241.06 428.22,159.342 c 1.132,0.46 2.3,0.898 3.5,1.22 23.324,6.248 49.764,-16.835 59.06,-51.533 9.298,-34.695 -2.08,-67.874 -25.405,-74.124 -23.325,-6.25 -49.765,16.802 -59.063,51.5 -1.467,5.476 -2.403,10.918 -2.875,16.22 L 169.53,16.343 Z"
       fill="#ffffff"
       fill-opacity="1"
       id="path12624"
       style="stroke:url(#linearGradient13516);stroke-width:7.92319069;stroke-dasharray:none;fill:#000000;fill-opacity:0.20058301" />
  </g>
</svg>
