<?xml version="1.0" encoding="UTF-8" standalone="no"?>
<svg
   viewBox="0 0 512 512"
   style="height: 512px; width: 512px;"
   version="1.1"
   id="svg6"
   sodipodi:docname="sharp-axe.svg"
   inkscape:version="1.1.2 (0a00cf5339, 2022-02-04)"
   xmlns:inkscape="http://www.inkscape.org/namespaces/inkscape"
   xmlns:sodipodi="http://sodipodi.sourceforge.net/DTD/sodipodi-0.dtd"
   xmlns:xlink="http://www.w3.org/1999/xlink"
   xmlns="http://www.w3.org/2000/svg"
   xmlns:svg="http://www.w3.org/2000/svg">
  <defs
     id="defs10">
    <linearGradient
       inkscape:collect="always"
       id="linearGradient948">
      <stop
         style="stop-color:#00d3fe;stop-opacity:1"
         offset="0"
         id="stop944" />
      <stop
         style="stop-color:#97eeff;stop-opacity:1"
         offset="1"
         id="stop946" />
    </linearGradient>
    <linearGradient
       inkscape:collect="always"
       xlink:href="#linearGradient948"
       id="linearGradient950"
       x1="255.82506"
       y1="508.80469"
       x2="255.82506"
       y2="-0.07788568"
       gradientUnits="userSpaceOnUse"
       gradientTransform="matrix(1.0000235,0,0,0.97136722,-0.00600602,9.8018128)" />
  </defs>
  <sodipodi:namedview
     id="namedview8"
     pagecolor="#505050"
     bordercolor="#eeeeee"
     borderopacity="1"
     inkscape:pageshadow="0"
     inkscape:pageopacity="0"
     inkscape:pagecheckerboard="0"
     showgrid="false"
     inkscape:snap-bbox="true"
     inkscape:snap-bbox-edge-midpoints="true"
     inkscape:zoom="1.28125"
     inkscape:cx="256"
     inkscape:cy="256"
     inkscape:window-width="1920"
     inkscape:window-height="1131"
     inkscape:window-x="0"
     inkscape:window-y="0"
     inkscape:window-maximized="1"
     inkscape:current-layer="g4" />
  <g
     class=""
     transform="translate(0,0)"
     style=""
     id="g4">
    <path
       d="m 334.05562,498.34969 c 2.18593,-0.47044 4.37029,-0.97207 6.54988,-1.50521 30.52218,-7.45761 60.21875,-21.00857 83.07577,-40.06551 26.12361,-21.77937 43.28247,-50.48843 43.93978,-85.75199 0.61873,-33.22279 -13.57338,-72.89036 -50.49133,-119.32817 a 218.04342,176.8538 34.700545 0 1 -10.30743,7.97885 c 27.3191,38.666 38.2943,73.15119 37.14291,102.67924 -1.28018,32.80602 -17.3561,58.96132 -39.99882,78.39399 -22.64043,19.43319 -51.87429,32.38165 -80.78243,39.26896 -1.80679,0.42997 -3.61102,0.83798 -5.41259,1.222 -21.41361,4.56875 -42.35728,5.856 -60.65887,3.46871 -5.26563,4.58926 -9.87123,9.20891 -13.19461,13.97515 23.67165,6.04718 53.59307,6.56595 83.57395,0.98098 a 279.22194,226.47537 34.700543 0 0 6.5642,-1.31607 z m -23.54865,-33.81724 c 1.67019,-0.35177 3.34398,-0.72775 5.01856,-1.12731 26.79791,-6.38282 54.08681,-18.56125 74.63803,-36.2012 20.55123,-17.63993 34.33767,-40.50231 35.43981,-68.74738 0.98058,-25.14481 -7.97876,-54.98366 -32.73055,-90.3134 -10.35833,5.25679 -20.73856,8.16363 -30.85452,8.07181 -10.23125,-0.0927 -21.43297,-4.54591 -28.24926,-13.37566 -0.74128,-0.9608 -1.4061,-1.96197 -2.04384,-2.97834 l -53.35646,115.86082 c 18.89431,15.12662 29.10754,28.92978 31.35042,42.30379 2.48885,14.83871 -5.20643,26.22932 -14.96667,35.68324 -5.33341,5.16604 -11.41084,10.07816 -17.54282,14.88839 10.47241,-0.31813 21.80221,-1.63881 33.2973,-4.06476 z m -105.70745,-46.04306 41.30676,-19.05027 17.8765,-38.8179 -36.24222,8.05288 -15.98166,-35.93821 -17.87649,38.81787 z m -82.96178,15.0074 c 1.51135,-5.73031 2.13922,-12.4712 2.34512,-19.75944 -13.92251,-15.44064 -26.529898,-36.16905 -36.521183,-59.4835 -12.406114,-28.9478 -20.527715,-61.84349 -19.865209,-93.01326 0.662507,-31.16977 10.267057,-60.77997 33.745082,-81.73338 21.13089,-18.85862 53.26693,-30.32305 98.38711,-30.30759 a 218.04666,176.85643 34.700543 0 1 -0.3406,-13.66541 c -56.67481,-3.53864 -94.58898,8.30499 -118.774551,28.94345 -25.671801,21.90693 -36.508716,53.99108 -36.797875,89.56565 -0.289568,35.57366 10.143315,74.45136 26.513779,108.40938 14.017631,29.08021 32.509717,54.41351 51.308327,71.0441 z m 2.09264,-46.74697 c -0.15352,-8.16799 -0.20102,-16.35144 0.38902,-24.04967 1.08146,-14.08825 4.84444,-27.57864 17.32038,-34.42636 11.24429,-6.1721 27.62894,-5.77169 50.24808,1.26851 l 53.35647,-115.86079 c -1.13733,0.0685 -2.27985,0.1046 -3.43879,0.0507 -10.65295,-0.49861 -20.72492,-7.40512 -26.98587,-16.11906 -6.19149,-8.6154 -10.32431,-19.27268 -12.70757,-31.3333 -41.09868,0.1666 -68.57973,10.54684 -86.57464,26.60624 -20.213193,18.04006 -28.770034,43.69497 -29.371788,71.98761 -0.602167,28.29173 6.912312,59.05606 18.412818,85.88895 5.66548,13.22004 12.36307,25.48416 19.35148,35.98625 z m 144.52505,-45.43981 -13.81084,-31.05662 -31.3177,6.95866 13.81083,31.05663 z m 11.56881,-15.52196 17.87754,-38.82017 -10.91899,-46.93518 -41.30529,19.04891 -17.87798,38.81925 36.24221,-8.05287 z m 29.85681,-64.83254 19.33369,-41.98393 -52.22336,-27.88647 -19.33555,41.98434 41.30675,-19.05026 z m 25.97748,-56.41057 13.53573,-29.38667 -52.22738,-27.88863 -13.53212,29.38791 z m 20.17869,-43.81517 52.7322,-114.507036 -15.98207,-35.93914 -36.24222,8.052873 -52.73167,114.505913 z"
       fill="#ffffff"
       fill-opacity="1"
       id="path2"
       style="fill:none;stroke:url(#linearGradient950);stroke-width:10;stroke-miterlimit:4;stroke-dasharray:none;stroke-linejoin:round" />
  </g>
</svg>
